<svg width="713" height="365" viewBox="0 0 713 365" fill="none" xmlns="http://www.w3.org/2000/svg">
<path fill-rule="evenodd" clip-rule="evenodd" d="M110.691 205.362C231.643 176.614 446.602 182.54 590.815 218.597C735.028 254.654 753.884 307.188 632.931 335.935C517.821 363.294 317.566 359.248 174.18 327.713C149.394 323.9 125.72 319.259 103.937 313.813C-19.1189 283.046 -35.2086 238.219 67.9993 213.69C79.7749 210.891 92.5947 208.477 106.25 206.443C107.707 206.08 109.188 205.719 110.691 205.362Z" fill="#FF866B"/>
<path fill-rule="evenodd" clip-rule="evenodd" d="M120.76 266.422C109.484 274.876 92.4614 271.889 81.8995 262.558C71.3377 253.227 66.2362 239.111 63.9153 225.21C59.4044 198.192 64.1208 169.719 77.1025 145.599C80.0066 140.203 83.757 134.654 89.5659 132.703C145.347 113.967 203.154 101.27 261.652 94.902C305.613 90.1168 350.363 88.9314 393.801 97.2143C437.24 105.497 479.505 123.736 511.714 154.037C524.324 165.901 542.75 168.999 560.05 169.7C577.35 170.4 595.128 169.323 611.513 174.919C639.288 184.405 657.199 210.721 673.087 235.4C677.377 242.064 681.71 248.817 684.214 256.336C691.955 279.583 681.348 307.067 693.025 328.608C685.916 330.788 678.281 331.228 670.968 329.879C672.367 336.377 663.74 339.949 657.154 340.846C628.12 344.8 599.085 348.754 570.051 352.707C569.07 349.781 569.979 346.313 572.268 344.244C523.384 339.334 474.47 334.715 425.53 330.386C420.054 329.902 413.555 329.85 410.269 334.257C392.333 358.309 351.913 360.554 331.423 338.637C323.874 330.562 318.308 319.606 307.911 315.851C266.662 300.949 225.413 286.048 184.164 271.147C172.713 267.01 155.071 262.582 131.239 257.862C129.59 257.352 128.404 257.396 127.68 257.994C124.066 260.982 121.721 265.701 120.76 266.422Z" fill="white"/>
<path fill-rule="evenodd" clip-rule="evenodd" d="M69.9554 180.796C72.3417 169.606 86.8882 164.521 97.5909 168.566C108.294 172.611 114.689 184.681 119.492 195.065C126.048 209.237 128.14 258.237 115.996 267.342C104.72 275.796 92.4615 271.889 81.8997 262.558C71.3378 253.227 66.2363 239.11 63.9154 225.209C59.4045 198.192 72.6599 171.21 69.9554 180.796Z" fill="#00160A"/>
<path fill-rule="evenodd" clip-rule="evenodd" d="M89.8224 266.072C101.954 266.072 111.789 246.193 111.789 221.67C111.789 197.148 97.7678 177.605 89.8224 177.269C81.8769 176.934 67.8555 197.148 67.8555 221.67C67.8555 246.193 77.6904 266.072 89.8224 266.072Z" fill="white"/>
<path fill-rule="evenodd" clip-rule="evenodd" d="M397.651 345.333C400.939 343.176 403.965 340.623 406.961 338.05C411.958 333.757 417.03 329.212 419.897 323.177C422.084 318.573 422.841 313.392 423.319 308.283C424.872 291.682 424.983 273.368 419.897 257.544C414.811 241.72 404.389 228.429 391.624 218.274C385.602 213.485 378.727 209.671 371.282 208.134C360.331 205.874 347.215 208.371 337.728 214.475C328.24 220.578 321.163 228.805 315.745 238.925C307.046 255.176 303.692 276.928 308.265 294.898C309.789 300.888 311.905 309.278 314.632 314.79C318.835 323.286 330.06 345.862 351.034 352.383C374.324 359.625 390.526 350.008 397.651 345.333Z" fill="#00160A"/>
<path fill-rule="evenodd" clip-rule="evenodd" d="M371.457 345.982C402.546 341.419 415.52 321.451 415.52 289.498C415.52 257.544 390.811 223.408 363.708 223.408C336.604 223.408 314.633 250.611 314.633 284.168C314.633 317.724 340.368 350.546 371.457 345.982Z" fill="white"/>
<path fill-rule="evenodd" clip-rule="evenodd" d="M202.773 170.184C201.961 169.448 202.089 168.16 202.283 167.081C202.422 166.308 202.835 165.322 203.612 165.433C204.97 165.627 204.076 168.446 205.404 168.792C210.779 170.193 216.098 171.81 221.344 173.639C222.421 174.014 223.486 173.153 224.411 172.485C225.335 171.817 226.808 171.378 227.471 172.306C226.04 173.581 224.457 174.924 222.544 175.052C221.788 175.103 221.035 174.956 220.293 174.806C214.833 173.701 209.421 172.361 204.077 170.792C203.612 170.656 203.132 170.509 202.773 170.184Z" fill="#00160A"/>
<path fill-rule="evenodd" clip-rule="evenodd" d="M299.052 289.497C268.823 277.748 239.904 262.632 213.003 244.518C204.796 238.992 198.713 230.706 194.615 221.701C190.517 212.696 188.29 202.955 186.654 193.198C184.657 181.282 183.504 169.225 183.207 157.146C184.159 156.999 184.603 158.278 184.675 159.239C186.276 180.559 187.353 202.525 196.318 221.934C197.768 225.074 199.608 228.315 202.712 229.838C231.722 244.074 260.731 258.309 289.741 272.544C288.424 273.373 286.713 272.696 285.316 272.009C257.516 258.347 229.716 244.685 201.917 231.023C205.225 237.449 211.402 241.827 217.441 245.798C241.701 261.751 267.536 275.308 294.447 286.21C291.204 282.545 287.744 278.234 288.321 273.374C289.233 274.239 289.688 275.463 290.195 276.613C292.304 281.399 295.7 285.483 299.052 289.497Z" fill="#00160A"/>
<path fill-rule="evenodd" clip-rule="evenodd" d="M661.17 0.072331C661.461 -0.171421 661.917 0.248812 661.846 0.621208C661.776 0.993605 661.427 1.23736 661.107 1.44035C660.794 1.03286 660.8 0.411145 661.121 0.00978026L661.17 0.072331Z" fill="#00160A"/>
<path fill-rule="evenodd" clip-rule="evenodd" d="M483.298 199.301C483.825 198.442 485.086 198.549 486.07 198.77C527.769 208.153 565.911 229.949 599.068 256.92C600.018 257.693 601.051 258.644 601.033 259.869C595.43 255.71 589.829 251.551 584.227 247.393C580.503 244.628 576.779 241.864 572.982 239.201C546.023 220.302 515.386 206.671 483.298 199.301Z" fill="#00160A"/>
<path fill-rule="evenodd" clip-rule="evenodd" d="M425.007 211.835C424.17 211.875 423.381 211.483 422.633 211.107C398.656 199.025 372.602 191.746 346.738 184.539C347.221 183.628 348.553 183.777 349.545 184.059C373.153 190.763 396.878 197.51 419.127 207.867C421.291 208.874 423.514 209.973 425.007 211.835Z" fill="#00160A"/>
<path fill-rule="evenodd" clip-rule="evenodd" d="M332.269 282.62C331.921 283.012 331.263 283.075 330.848 282.756C335.957 266.904 349.426 254.015 365.488 249.608C365.712 250.671 364.43 251.361 363.4 251.706C349.034 256.517 337.181 268.288 332.269 282.62Z" fill="#00160A"/>
<path fill-rule="evenodd" clip-rule="evenodd" d="M241.311 279.404C247.963 283.118 253.642 288.559 257.638 295.047C256.61 295.625 255.476 294.52 254.792 293.559C250.608 287.679 245.389 282.283 238.781 279.381C216.738 269.701 195.053 259.204 173.786 247.92C174.618 247.498 175.612 247.901 176.454 248.303C185.348 252.55 194.242 256.796 203.136 261.043C209.159 263.918 215.181 266.794 221.203 269.669C226.205 272.057 231.206 274.446 236.208 276.834C237.927 277.655 239.647 278.476 241.311 279.404Z" fill="#00160A"/>
<path fill-rule="evenodd" clip-rule="evenodd" d="M319.217 256.674C320.029 254.506 320.499 252.13 322.503 250.971C316.377 263.742 314.571 278.181 315.379 292.322C315.48 294.091 315.637 295.863 316 297.597C316.595 300.448 317.745 303.182 319.368 305.601C319.32 306.076 318.68 306.29 318.246 306.092C317.811 305.894 317.553 305.448 317.334 305.025C313.493 297.6 313.085 288.875 313.708 280.54C313.862 278.477 314.075 276.416 314.419 274.376C315.441 268.308 316.583 262.397 318.739 256.634L319.217 256.674Z" fill="#00160A"/>
<path fill-rule="evenodd" clip-rule="evenodd" d="M631.252 251.098C632.249 251.115 633.314 251.274 634.054 251.943C634.416 252.27 634.672 252.694 634.918 253.116C636.157 255.237 637.27 257.431 638.25 259.683C637.866 260.558 636.799 260.967 635.848 260.876C634.897 260.785 634.034 260.302 633.21 259.817C630.942 258.482 628.729 257.052 626.578 255.534C625.987 255.116 625.325 254.44 625.629 253.783C626.555 251.788 629.052 251.058 631.252 251.098ZM636.174 259.952C636.376 259.719 636.578 259.486 636.781 259.253C636.102 257.987 635.423 256.722 634.744 255.456C634.153 254.354 633.481 253.176 632.333 252.679C631.456 252.3 630.453 252.392 629.512 252.555C628.884 252.665 628.218 252.826 627.786 253.294C627.353 253.763 627.312 254.635 627.859 254.963C630.63 256.626 633.402 258.289 636.174 259.952Z" fill="#00160A"/>
<path fill-rule="evenodd" clip-rule="evenodd" d="M344.749 285.52C344.188 284.361 344.501 282.981 344.907 281.759C348.056 272.27 355.952 265.068 364.501 259.883C364.894 259.644 365.345 259.4 365.791 259.514C366.236 259.628 366.491 260.317 366.095 260.551C357.655 265.546 349.671 272.398 346.56 281.699C346.109 283.048 345.733 284.492 344.749 285.52Z" fill="#00160A"/>
<path fill-rule="evenodd" clip-rule="evenodd" d="M103.919 210.939C104.354 210.087 105.6 211.021 105.968 211.905C108.765 218.621 109.339 226.243 107.579 233.302C105.82 240.362 101.736 246.822 96.1137 251.44C95.1808 250.996 95.9115 249.597 96.6717 248.896C101.746 244.222 105.267 237.89 106.561 231.114C107.855 224.338 106.914 217.154 103.919 210.939Z" fill="#00160A"/>
<path fill-rule="evenodd" clip-rule="evenodd" d="M78.146 233.031C78.2922 233.31 78.4425 233.609 78.4159 233.923C78.3893 234.237 78.1048 234.55 77.7967 234.483C77.5874 234.438 77.4473 234.244 77.3448 234.056C76.8567 233.161 76.7658 232.058 77.1007 231.095C77.7204 231.5 78.0676 232.284 77.9504 233.015L78.146 233.031Z" fill="#00160A"/>
<path fill-rule="evenodd" clip-rule="evenodd" d="M119.243 242.611C119.736 242.989 119.445 243.949 118.824 243.989C118.5 243.681 118.692 243.028 119.132 242.945L119.243 242.611Z" fill="#00160A"/>
<path fill-rule="evenodd" clip-rule="evenodd" d="M74.8791 234.05C74.4937 233.053 74.2602 231.63 75.226 231.171C75.9128 233.099 76.5997 235.026 77.2866 236.954C77.3895 237.242 77.4938 237.549 77.4309 237.849C77.3679 238.149 77.0669 238.421 76.7726 238.335C76.5266 238.264 76.4037 237.995 76.3114 237.756C75.834 236.521 75.3566 235.286 74.8791 234.05Z" fill="#00160A"/>
<path fill-rule="evenodd" clip-rule="evenodd" d="M72.8521 232.1C73.6861 232.526 73.5679 233.716 73.5858 234.653C73.6235 236.629 74.7939 238.371 75.7412 240.105C75.9305 240.452 76.1176 240.849 76.0047 241.227C75.8918 241.605 75.3106 241.817 75.0981 241.484C73.7315 239.345 72.7582 236.956 72.241 234.471C72.0611 233.607 72.0565 232.482 72.8521 232.1Z" fill="#00160A"/>
<path fill-rule="evenodd" clip-rule="evenodd" d="M216.624 118.735C188.884 123.82 161.321 131.385 136.466 144.711C135.772 143.726 137.047 142.556 138.132 142.031C167.95 127.615 200.316 118.487 233.273 115.199C240.919 114.436 248.709 113.992 256.231 115.564C275.138 119.514 289.512 135.846 296.508 153.85C300.487 164.092 303.159 175.942 312.192 182.198C302.847 181.152 293.878 178.027 285.002 174.924C281.546 173.716 278.091 172.509 274.636 171.301C267.52 168.813 260.404 166.326 253.288 163.839C261.561 165.184 269.695 167.372 277.526 170.358C276.901 168.575 275.671 167.01 274.087 165.98C261.82 162.824 248.923 162.133 236.388 163.963C233.977 164.315 233.223 160.879 231.807 158.895C230.436 156.974 227.96 156.261 225.674 155.673C209.827 151.602 193.981 147.53 178.134 143.458C178.816 142.733 179.984 142.876 180.958 143.077C197.436 146.481 213.733 150.766 229.755 155.907C228.597 153.527 227.44 151.147 226.282 148.767C226.102 148.396 225.917 147.993 225.991 147.588C226.096 147.019 226.66 146.671 227.173 146.402C241.716 138.785 259.355 137.309 274.962 142.403C277.115 143.106 279.595 144.403 279.688 146.665C280.035 155.113 286.699 161.767 292.914 167.498C295.666 170.035 298.521 172.636 302.049 173.885C298.9 164.091 295.723 154.233 290.842 145.177C285.96 136.12 279.221 127.813 270.33 122.637C254.473 113.406 234.671 115.426 216.624 118.735ZM276.394 146.5C275.893 145.586 275.29 144.588 274.285 144.312C267.495 142.443 260.516 140.557 253.509 141.258C250.097 141.599 246.78 142.546 243.483 143.49C238.837 144.82 234.19 146.151 229.544 147.481C229.151 147.593 228.696 147.767 228.599 148.164C228.529 148.448 228.677 148.736 228.821 148.992C230.801 152.508 232.781 156.025 234.761 159.541C235.148 160.229 235.573 160.954 236.276 161.312C236.812 161.585 237.436 161.605 238.037 161.609C246.691 161.672 255.48 159.633 263.91 161.591C266.13 162.106 268.293 162.895 270.555 163.18C272.816 163.465 275.275 163.179 277.056 161.757C279.229 160.023 279.93 156.933 279.509 154.186C279.089 151.438 277.73 148.937 276.394 146.5ZM308.775 179.918C306.693 176.975 302.848 176.03 299.641 174.384C292.58 170.761 288.263 163.385 281.882 158.665C280.699 160.628 279.022 162.29 277.049 163.457C276.521 163.769 275.891 164.185 275.939 164.797C275.96 165.058 276.108 165.289 276.252 165.508C277.201 166.951 278.15 168.394 279.099 169.837C279.699 170.75 280.32 171.684 281.212 172.315C281.998 172.871 282.94 173.152 283.864 173.424C292.157 175.867 300.451 178.309 308.744 180.752C309.065 180.675 308.965 180.188 308.775 179.918Z" fill="#00160A"/>
<path fill-rule="evenodd" clip-rule="evenodd" d="M73.2862 226.345C71.4489 221.063 71.6636 215.193 73.3019 209.846C74.9403 204.499 77.94 199.643 81.521 195.347C81.8061 195.005 82.1019 194.66 82.4815 194.427C82.774 194.248 83.1106 194.141 83.4531 194.118C83.6862 194.807 83.1992 195.513 82.7471 196.083C79.7964 199.804 77.0964 203.781 75.3471 208.196C73.5977 212.611 72.8398 217.511 73.83 222.156C74.142 223.619 74.4938 225.461 73.2862 226.345H73.2862Z" fill="#00160A"/>
<path fill-rule="evenodd" clip-rule="evenodd" d="M104.337 220.041C106.139 228.168 102.952 237.195 96.4456 242.389C96.3688 242.45 96.2895 242.512 96.1963 242.543C95.8258 242.667 95.4749 242.211 95.5351 241.825C95.5953 241.439 95.9005 241.145 96.1837 240.876C97.8044 239.337 99.2564 237.611 100.408 235.695C102.967 231.438 103.957 226.261 103.151 221.359C103.076 220.903 102.995 220.396 103.247 220.008C103.499 219.619 104.236 219.589 104.337 220.041Z" fill="#00160A"/>
<path fill-rule="evenodd" clip-rule="evenodd" d="M101.19 194.346C101.342 194.655 101.485 195.014 101.358 195.335C101.232 195.656 100.696 195.78 100.557 195.465C99.838 193.832 98.6757 192.397 97.2278 191.354C96.82 191.061 97.2103 190.335 97.7122 190.31C98.214 190.285 98.6337 190.67 98.9684 191.045C99.8546 192.037 100.604 193.151 101.19 194.346Z" fill="#00160A"/>
<path fill-rule="evenodd" clip-rule="evenodd" d="M98.6195 188.329C98.2928 188.037 98.6816 187.443 99.1194 187.447C99.5572 187.452 99.9059 187.8 100.191 188.132C101.881 190.097 103.203 192.375 104.072 194.816C104.195 195.164 104.307 195.563 104.133 195.888C103.959 196.214 103.367 196.269 103.273 195.913C102.504 193.004 100.864 190.332 98.6195 188.329Z" fill="#00160A"/>
<path fill-rule="evenodd" clip-rule="evenodd" d="M98.5438 197.758C97.7907 197.132 97.0375 196.505 96.2844 195.879C95.9814 195.627 96.3105 195.081 96.7044 195.065C97.0983 195.05 97.429 195.342 97.7133 195.615C98.166 196.05 98.6187 196.485 99.0714 196.919C99.377 197.213 99.6634 197.77 99.2976 197.984C99.0554 198.126 98.7595 197.937 98.5438 197.758Z" fill="#00160A"/>
<path fill-rule="evenodd" clip-rule="evenodd" d="M408.832 294.92C407.429 303.067 403.033 310.664 396.667 315.939C393.156 318.849 389.107 321.047 384.951 322.925C380.235 325.056 375.344 326.8 370.344 328.133C370.415 326.812 371.955 326.171 373.228 325.811C380.661 323.709 387.976 320.795 394.132 316.129C400.287 311.462 405.227 304.89 406.832 297.334C407.074 296.193 407.687 294.7 408.832 294.92Z" fill="#00160A"/>
<path fill-rule="evenodd" clip-rule="evenodd" d="M91.8886 223.301C90.9067 223.609 89.7968 223.254 89.0298 222.568C88.2628 221.882 87.8029 220.909 87.5444 219.913C87.3112 219.014 87.2269 218.077 87.2957 217.152C87.423 215.441 88.074 213.791 89.0374 212.372C89.5217 211.659 90.1355 210.965 90.9645 210.727C92.3518 210.33 93.8028 211.404 94.3993 212.718C94.9623 213.958 94.9817 215.37 94.9248 216.731C94.85 218.519 94.6323 220.384 93.6365 221.87C93.2092 222.508 92.6211 223.071 91.8886 223.301ZM91.3067 212.232C88.4943 214.17 87.645 218.45 89.5042 221.315C89.9045 221.932 90.5224 222.531 91.2554 222.471C92.1167 222.4 92.6255 221.491 92.9296 220.682C93.9405 217.993 94.3332 214.743 92.6361 212.426C92.4944 212.232 92.3224 212.037 92.0885 211.984C91.8137 211.921 91.5387 212.072 91.3067 212.232Z" fill="#00160A"/>
<path fill-rule="evenodd" clip-rule="evenodd" d="M84.7873 201.056C81.2293 204.06 79.5994 208.721 78.3136 213.196C77.6932 215.356 77.1133 217.548 77.0036 219.792C76.9563 220.761 76.951 221.85 76.2576 222.529C75.4947 222.191 75.4194 221.152 75.4874 220.321C76.0545 213.391 78.5155 206.625 82.5332 200.95C82.9085 200.42 83.3773 199.852 84.0247 199.8C84.672 199.747 85.2835 200.637 84.7873 201.056Z" fill="#00160A"/>
<path fill-rule="evenodd" clip-rule="evenodd" d="M354.867 306.501C355.201 306.81 354.808 307.423 354.353 307.435C353.898 307.447 353.519 307.106 353.202 306.779C351.153 304.658 349.502 302.154 348.361 299.434C348.676 299.053 349.309 299.108 349.7 299.41C350.091 299.712 350.304 300.183 350.519 300.627C351.587 302.832 353.07 304.835 354.867 306.501Z" fill="#00160A"/>
<path fill-rule="evenodd" clip-rule="evenodd" d="M357.174 303.032C355.795 301.875 354.628 300.466 353.749 298.895C353.635 298.692 353.523 298.464 353.571 298.237C353.652 297.855 354.162 297.705 354.523 297.854C354.884 298.002 355.124 298.343 355.343 298.666C356.175 299.895 357.008 301.124 357.84 302.353C357.618 302.579 357.396 302.805 357.174 303.032Z" fill="#00160A"/>
<path fill-rule="evenodd" clip-rule="evenodd" d="M343.442 302.114C344.004 303.766 344.69 305.376 345.492 306.926C346.583 309.033 347.898 311.042 349.561 312.735C349.913 313.094 349.413 313.745 348.912 313.698C348.41 313.652 348.043 313.221 347.741 312.818C345.903 310.374 344.298 307.754 342.955 305.007C342.703 304.49 342.455 303.944 342.475 303.37C342.495 302.796 342.873 302.192 343.442 302.114Z" fill="#00160A"/>
<path fill-rule="evenodd" clip-rule="evenodd" d="M171.471 150.205C169.532 167.012 172.567 183.951 175.59 200.597C176.104 203.427 176.619 206.258 177.311 209.05C179.518 217.943 183.547 226.38 189.078 233.686C189.81 234.653 190.572 236.041 189.778 236.958C179.513 230.582 169.481 223.832 159.707 216.727C158.816 216.079 157.879 215.365 157.517 214.324C150.262 193.477 148.017 171.274 145.823 149.31C145.787 148.953 145.753 148.58 145.878 148.243C146.093 147.663 146.707 147.349 147.268 147.088C154.861 143.573 162.454 140.058 170.046 136.542C174.842 134.322 179.732 132.074 184.973 131.394C182.851 133.262 180.171 134.488 177.371 134.872C175.829 135.083 174.586 136.327 173.942 137.744C173.299 139.161 173.15 140.745 173.01 142.296C176.736 139.723 180.461 137.151 184.186 134.579C185.141 133.92 186.778 133.444 187.18 134.532C182.909 137.178 178.725 139.963 174.636 142.881C172.404 144.474 171.785 147.48 171.471 150.205ZM182.003 225.026C180.752 222.886 179.496 220.737 178.575 218.436C177.533 215.83 176.937 213.071 176.346 210.328C173.744 198.251 171.136 186.138 170.026 173.834C168.916 161.53 169.337 148.962 172.713 137.079C168.876 138.447 165.196 140.219 161.526 141.988C156.979 144.178 152.433 146.369 147.887 148.559C147.664 148.667 147.43 148.784 147.297 148.992C147.134 149.25 147.164 149.58 147.199 149.883C147.845 155.339 148.491 160.794 149.136 166.25C150.12 174.561 151.105 182.882 152.719 191.094C153.941 197.309 155.521 203.452 157.45 209.485C158.304 212.155 159.366 214.992 161.694 216.554C170.117 222.204 178.54 227.855 186.963 233.505C185.309 230.679 183.656 227.852 182.003 225.026Z" fill="#00160A"/>
<path fill-rule="evenodd" clip-rule="evenodd" d="M390.158 266.888C391.624 268.295 392.816 269.985 393.649 271.838C393.728 272.015 393.806 272.204 393.78 272.397C393.717 272.869 393.05 273.032 392.637 272.794C392.225 272.556 392.01 272.09 391.8 271.663C390.907 269.841 389.648 268.2 388.119 266.866C388.139 266.435 388.644 266.16 389.071 266.225C389.498 266.29 389.847 266.589 390.158 266.888Z" fill="#00160A"/>
<path fill-rule="evenodd" clip-rule="evenodd" d="M396.886 291.38C397.014 291.056 397.554 291.142 397.714 291.452C397.874 291.761 397.777 292.136 397.67 292.468C394.494 302.293 385.526 309.237 376.023 313.277C375.544 313.48 374.995 313.679 374.52 313.466C374.045 313.254 373.916 312.42 374.413 312.265C384.509 309.12 393.01 301.219 396.886 291.38Z" fill="#00160A"/>
<path fill-rule="evenodd" clip-rule="evenodd" d="M385.86 272.238C386.766 273.375 387.481 274.665 387.964 276.037C388.011 276.168 388.055 276.311 388.014 276.443C387.872 276.905 387.171 276.586 386.866 276.212C385.92 275.051 384.975 273.891 384.029 272.73C383.879 272.546 383.722 272.346 383.701 272.109C383.659 271.624 384.245 271.277 384.721 271.375C385.197 271.473 385.556 271.857 385.86 272.238Z" fill="#00160A"/>
<path fill-rule="evenodd" clip-rule="evenodd" d="M399.343 269.453C398.834 269.133 398.674 268.481 398.526 267.899C397.72 264.733 395.991 261.809 393.607 259.576C393.268 259.259 392.896 258.922 392.803 258.467C392.71 258.013 393.086 257.448 393.537 257.558C393.712 257.6 393.851 257.73 393.98 257.856C396.575 260.4 398.584 263.538 399.808 266.959C400.125 267.846 400.226 269.122 399.343 269.453Z" fill="#00160A"/>
<path fill-rule="evenodd" clip-rule="evenodd" d="M368.998 281.455C370.546 281.209 372.187 281.608 373.45 282.537C373.959 282.912 374.406 283.367 374.788 283.87C376.044 285.524 376.556 287.721 376.161 289.759C375.766 291.797 374.471 293.644 372.689 294.709C372.262 294.964 371.802 295.178 371.311 295.254C370.94 295.311 370.56 295.288 370.19 295.227C368.333 294.922 366.71 293.663 365.722 292.061C364.311 289.773 364.154 286.763 365.318 284.34C365.726 283.49 366.3 282.698 367.083 282.173C367.654 281.791 368.319 281.562 368.998 281.455ZM372.378 292.573C373.211 291.716 373.803 290.629 374.072 289.465C374.523 287.516 373.94 285.248 372.312 284.086C370.683 282.925 368.032 283.309 367.114 285.086C366.345 286.573 366.252 288.391 366.863 289.949C367.474 291.506 368.78 292.776 370.354 293.343C371.073 293.601 371.846 293.121 372.378 292.573V292.573Z" fill="#00160A"/>
<path fill-rule="evenodd" clip-rule="evenodd" d="M360.999 274.093C366.195 270.24 374.048 270.209 379.277 274.02C386.185 264.897 391.97 254.976 396.472 244.535C397.267 242.691 395.651 240.764 394.165 239.379C387.431 233.103 380.219 226.64 371.154 224.449C362.053 222.25 351.311 223.859 343.355 228.673C335.398 233.486 329.036 240.393 323.21 247.517C323.003 246.07 324.015 244.751 324.985 243.632C330.933 236.77 337.612 230.297 345.77 226.078C353.928 221.858 364.711 221.027 373.493 223.834C376.179 224.692 378.711 225.953 381.134 227.366C393.448 234.549 402.995 245.727 409.285 258.252C415.574 270.776 418.737 284.615 419.957 298.493C420.278 302.146 420.467 305.841 419.882 309.462C419.326 312.898 418.083 316.202 416.538 319.341C412.248 328.059 405.493 335.688 397.009 340.757C382.696 349.309 363.897 349.905 348.646 343.043C333.394 336.181 321.909 322.294 317.437 306.585C331.101 303.571 344.241 298.338 356.144 291.172C353.717 285.284 355.803 277.946 360.999 274.093ZM391.277 341.736C390.949 341.532 390.477 341.728 390.348 342.122C391.02 342.14 391.696 341.882 392.217 341.407C391.991 340.992 391.287 341.21 391.282 341.696L391.277 341.736ZM339.871 336.076C347.95 341.66 357.579 345.318 367.51 345.805C373.883 346.118 380.323 345.124 386.276 342.909C388.645 342.028 390.932 340.958 393.216 339.89C395.839 338.664 398.479 337.427 400.81 335.74C402.309 334.654 403.663 333.394 404.958 332.088C409.877 327.124 414.042 321.343 416.291 314.832C420.847 301.643 417.133 287.271 413.246 273.885C404.04 274.805 395.042 277.609 387.021 282.057C389.195 288.297 387.989 295.733 383.273 300.495C378.557 305.258 370.291 306.658 364.567 303.064C363.476 302.378 362.073 303.242 361.112 304.09C353.115 311.144 346.813 319.97 342.835 329.687C341.945 331.861 341.16 334.097 339.871 336.076ZM359.887 302.135C360.143 301.889 360.416 301.61 360.435 301.259C360.45 300.972 360.286 300.707 360.128 300.464C358.428 297.836 356.728 295.208 355.027 292.58C343.919 299.782 331.409 304.903 318.371 307.588C322.656 317.973 329.506 327.333 338.173 334.644C342.92 322.453 350.382 311.282 359.887 302.135ZM361.704 299.858C364.939 302.681 369.48 304.239 373.853 303.687C375.062 303.535 376.252 303.227 377.354 302.736C378.365 302.285 379.295 301.683 380.154 301.009C383.505 298.375 385.783 294.561 386.43 290.498C386.868 287.746 386.541 284.806 385.005 282.428C384.411 281.509 383.653 280.694 382.899 279.884C381.314 278.182 379.704 276.459 377.71 275.191C373.956 272.804 368.939 272.279 364.719 273.833C360.5 275.387 357.194 278.976 356.16 283.126C355.688 285.02 355.666 286.997 355.935 288.925C356.509 293.041 358.47 297.035 361.704 299.858ZM412.782 271.837C410.608 261.654 405.824 251.999 398.975 243.973C394.803 254.583 388.764 264.508 381.195 273.194C380.794 273.654 381.088 274.348 381.394 274.872C382.164 276.194 382.964 277.551 384.198 278.49C385.432 279.428 387.221 279.856 388.596 279.122C396.037 275.15 404.321 272.655 412.782 271.837Z" fill="#00160A"/>
<path fill-rule="evenodd" clip-rule="evenodd" d="M515.084 178.534C461.488 178.656 407.892 178.778 354.296 178.901C340.081 178.933 326.786 170.999 317.172 160.528C307.558 150.057 300.391 135.467 294.004 122.767C299.316 121.217 306.027 122.621 311.416 121.344C324.625 118.214 335.673 112.556 349.03 110.632C380.353 106.118 414.25 108.256 445.828 112.063C407.306 100.093 367.087 93.5942 326.755 92.8232C283.102 91.9887 239.552 97.8268 196.729 106.34C160.507 113.54 124.666 122.662 89.4084 133.654C97.0185 132.837 107.793 134.099 109.104 143.035C105.077 133.924 91.2115 133.467 83.4867 139.755C75.7618 146.043 72.6598 156.254 69.9553 165.84C72.3416 154.65 86.888 149.565 97.5908 153.61C108.293 157.655 115.384 167.887 120.188 178.271C126.744 192.444 130.305 207.853 132.207 223.352C134.106 238.825 133.233 257.07 120.76 266.422C109.484 274.876 92.4614 271.889 81.8995 262.558C71.3377 253.227 66.2362 239.111 63.9153 225.21C59.4044 198.192 64.1208 169.719 77.1025 145.599C80.0066 140.203 83.757 134.654 89.5659 132.703C145.347 113.967 203.154 101.27 261.652 94.902C305.613 90.1168 350.363 88.9314 393.801 97.2143C437.24 105.497 479.505 123.736 511.714 154.037C524.324 165.901 542.749 168.999 560.05 169.7C577.35 170.4 595.128 169.323 611.513 174.919C639.288 184.405 657.199 210.721 673.087 235.4C677.376 242.064 681.71 248.817 684.214 256.336C691.955 279.583 681.348 307.067 693.025 328.608C685.916 330.788 678.281 331.228 670.968 329.879C672.367 336.377 663.74 339.949 657.154 340.846C628.12 344.8 599.085 348.754 570.051 352.707C569.07 349.781 569.979 346.313 572.268 344.244C523.384 339.334 474.47 334.715 425.53 330.386C420.054 329.902 413.555 329.85 410.269 334.257C392.333 358.309 351.913 360.554 331.423 338.637C323.874 330.562 318.308 319.606 307.911 315.851C266.662 300.949 225.413 286.048 184.164 271.147C166.987 264.942 149.484 258.67 131.239 257.862C141.963 255.095 153.17 258.871 163.598 262.601C213.171 280.329 262.743 298.057 312.315 315.785C306.42 295.243 303.451 273.168 309.125 252.563C314.799 231.958 330.537 213.183 351.411 208.601C378.355 202.686 406.07 222.358 416.892 247.731C427.713 273.104 424.95 302.258 418.109 328.981C442.539 327.878 467.087 329.411 491.191 333.543C476.568 308.559 464.731 281.946 455.97 254.355C466.928 278.054 477.886 301.754 488.844 325.453C491.232 330.619 494.862 336.606 500.552 336.462C488.08 310.305 475.608 284.147 463.136 257.99C534.62 271.553 608.595 284.5 679.538 268.341C658.07 268.166 636.835 273.614 615.37 273.227C591.702 272.8 568.216 265.066 548.926 251.345C551.331 255.027 544.877 257.935 540.486 257.685C519.081 256.464 497.676 255.244 476.271 254.024C469.505 253.638 462.476 253.18 456.551 249.891C446.152 244.121 442.039 231.516 438.808 220.071C477.264 222.599 515.145 233.542 549.024 251.911C587.623 272.839 634.643 277.659 676.685 264.996C668.151 237.876 658.581 209.177 636.603 191.14C611.027 170.15 574.984 168.706 541.933 170.25C588.812 181.922 630.924 211.745 657.497 252.09C629.973 213.552 589.217 184.653 543.742 171.432C538.542 169.92 531.728 169.168 528.841 173.749C526.132 178.047 520.164 178.522 515.084 178.534ZM336.161 223.007C348.173 215.032 364.028 212.205 377.378 217.653C380.777 219.041 383.959 220.921 386.979 223.009C398.166 230.746 407.255 241.486 413.034 253.8C420.066 268.783 422.118 285.615 422.644 302.158C423.071 297.582 423.262 292.985 423.214 288.39C423.038 271.509 419.499 254.384 410.869 239.874C402.239 225.364 388.158 213.7 371.672 210.061C355.187 206.422 336.518 211.694 325.899 224.819C322.747 228.715 320.349 233.158 318.086 237.63C314.947 243.833 312.006 250.221 310.592 257.028C315.718 243.552 324.15 230.982 336.161 223.007ZM296.376 123.793C303.701 138.099 311.236 152.691 322.833 163.818C334.43 174.945 351.047 182.164 366.682 178.442C382.56 174.661 399.103 175.158 415.418 175.678C444.219 176.594 473.02 177.511 501.822 178.428C512.626 178.772 525.265 178.265 531.577 169.49C516.144 159.449 502.42 147.022 487.561 136.149C472.703 125.276 456.227 115.786 438.046 112.877C430.177 111.618 422.167 111.622 414.198 111.628C397.51 111.643 380.821 111.657 364.133 111.672C357.329 111.677 350.442 111.693 343.85 113.378C338.576 114.725 333.632 117.106 328.518 118.97C318.271 122.705 307.268 124.356 296.376 123.793ZM492.285 291.953C496.967 306.187 502.353 320.19 508.417 333.893C508.967 335.136 509.762 336.555 511.116 336.674C533.363 338.623 555.611 340.572 577.859 342.521C578.837 342.606 579.865 342.684 580.76 342.281C581.573 341.914 582.166 341.2 582.729 340.509C587.708 334.397 592.687 328.285 597.666 322.174C592.612 314.957 584.508 310.339 576.067 307.816C567.626 305.292 558.756 304.657 549.974 303.957C548.787 303.862 547.171 302.778 548.012 301.935C556.748 302.404 565.45 303.502 574.028 305.218C579.896 306.392 586.112 308.097 589.976 312.666C595.165 303.062 600.353 293.458 605.542 283.855C630.8 280.562 655.97 276.6 681.018 271.974C659.541 273.897 638.063 275.82 616.585 277.744C611.825 278.17 607.058 278.597 602.279 278.611C596.326 278.628 590.393 278.006 584.473 277.385C577.288 276.63 570.103 275.876 562.917 275.121C530.521 271.72 497.965 268.289 466.508 259.831C476.905 285.025 488.867 309.574 502.301 333.289C503.343 335.128 505.322 337.256 507.162 336.216C497.745 314.153 489.597 291.548 482.77 268.551C482.3 266.967 481.936 264.989 483.165 263.885C486.145 272.774 489.037 281.691 491.843 290.637C507.392 290.773 522.923 292.937 537.918 297.055C544.061 298.742 551.119 300.628 556.392 297.054C550.194 290.995 542.436 286.545 534.077 284.252C529.388 282.967 524.546 282.353 519.723 281.744C509.301 280.427 498.878 279.11 488.456 277.794C502.862 276.648 517.277 279.188 531.505 281.717C534.315 282.216 537.147 282.722 539.798 283.775C542.593 284.886 545.115 286.575 547.612 288.251C552.005 291.2 556.399 294.149 560.793 297.099C557.44 300.048 552.716 301.004 548.258 300.758C543.799 300.511 539.482 299.192 535.154 298.094C521.147 294.538 506.68 293.24 492.285 291.953ZM355.577 352.871C356.542 353.209 357.785 353.453 358.446 352.672C355.632 352.407 352.914 351.207 350.823 349.305C365.044 355.441 382.257 354.087 395.344 345.803C398.547 343.775 401.496 341.375 404.416 338.956C409.285 334.92 414.228 330.647 417.022 324.973C419.154 320.644 419.891 315.773 420.357 310.97C421.871 295.363 420.757 279.37 415.8 264.493C410.844 249.616 401.91 235.893 389.47 226.346C383.601 221.843 376.901 218.257 369.647 216.813C358.975 214.687 347.648 217.405 338.402 223.144C329.157 228.882 321.894 237.463 316.614 246.978C308.137 262.257 304.597 280.67 309.053 297.566C310.538 303.197 312.868 308.575 315.525 313.758C324.251 330.773 337.535 346.535 355.577 352.871ZM596.716 326.427C591.925 332.87 586.485 338.8 581.057 344.717C580.167 345.687 578.453 346.613 577.768 345.49C577.133 344.449 575.556 344.37 574.512 344.999C573.468 345.628 572.832 346.742 572.24 347.808C571.773 348.649 571.306 349.491 570.84 350.332C600.904 346.857 630.897 342.769 660.794 338.071C663.067 337.714 665.572 337.219 666.955 335.381C667.5 334.657 667.812 333.789 668.113 332.934C671.307 323.862 674.115 314.655 676.529 305.346C670.801 306.941 665.072 308.536 659.343 310.132C657.016 310.78 654.688 311.428 652.339 311.992C637.019 315.674 621.003 315.755 605.698 319.503C604.666 319.756 603.63 320.028 602.674 320.491C600.123 321.724 598.406 324.153 596.716 326.427ZM547.503 255.483C536.776 245.139 522.055 240.271 507.867 235.715C502.49 233.988 497.113 232.261 491.735 230.534C488.502 229.495 485.267 228.456 481.994 227.548C468.456 223.794 454.399 222.317 440.391 221.246C440.2 221.231 439.999 221.218 439.825 221.298C439.275 221.549 439.45 222.367 439.713 222.91C442.804 229.294 446.187 235.536 449.848 241.611C451.43 244.236 453.106 246.878 455.473 248.824C458.624 251.414 462.757 252.548 466.825 252.841C470.893 253.135 474.972 252.658 479.041 252.379C488.1 251.758 497.227 252.122 506.208 253.46C511.109 254.191 515.966 255.211 520.88 255.844C529.712 256.982 538.705 256.86 547.503 255.483ZM665.772 306.144C669.343 305.192 672.973 304.458 676.633 303.947C678.278 297.852 679.923 291.758 681.568 285.663C678.113 286.663 674.609 287.492 671.072 288.145C668.27 288.663 665.449 289.07 662.627 289.463C642.661 292.238 622.59 294.262 602.471 295.53C601.361 295.599 600.667 296.724 600.164 297.716C597.576 302.82 594.988 307.924 592.4 313.029C592.201 313.42 591.998 313.865 592.134 314.283C592.229 314.573 592.472 314.787 592.704 314.985C593.882 315.994 595.06 317.002 596.238 318.011C597.35 318.963 598.774 319.98 600.15 319.479C616.573 313.491 634.74 314.608 651.672 310.263C656.415 309.046 661.04 307.405 665.772 306.144ZM83.7466 230.888C81.086 236.049 78.4254 241.21 75.7648 246.371C75.2906 247.291 74.8034 248.268 74.8623 249.301C74.9075 250.094 75.2719 250.83 75.6516 251.528C79.678 258.925 86.3414 264.851 94.1579 267.987C95.1397 268.381 96.1927 268.738 97.2365 268.566C98.5609 268.348 99.5941 267.332 100.49 266.332C108.668 257.21 113.251 245.109 113.963 232.878C114.675 220.647 111.633 208.328 106.02 197.437C104.963 198.516 103.906 199.595 102.849 200.674C100.497 203.074 97.9499 206.248 99.0454 209.424C101.395 216.236 101.245 224.263 97.0801 230.143C95.2216 232.766 92.139 234.993 88.9958 234.317C87.085 233.906 85.5424 232.497 84.332 230.962C82.8799 229.121 81.76 227.018 81.0425 224.786C78.5319 228.065 75.0127 230.562 71.0876 231.848C69.5474 232.352 69.5711 234.523 69.9456 236.1C70.9014 240.124 72.1409 244.081 73.6519 247.931C75.8651 242.339 78.6143 236.96 81.8495 231.891C82.2796 231.217 83.0733 230.458 83.7466 230.888ZM95.6993 179.348C104.254 187.34 109.018 198.563 112.427 209.762C113.148 212.131 113.82 214.517 114.339 216.939C118.288 235.358 112.682 255.561 99.8068 269.312C104.621 269.107 109.397 268.044 113.844 266.189C114.736 265.817 115.637 265.398 116.315 264.708C117.343 263.662 117.71 262.154 118.037 260.724C120.077 251.786 122.124 242.792 122.576 233.636C123.207 220.825 120.688 208.029 116.886 195.779C116.16 193.438 115.385 191.11 114.451 188.843C111.401 181.443 106.636 174.755 100.637 169.456C96.9882 166.233 92.1283 163.385 87.4735 164.812C84.5886 165.696 82.425 168.06 80.5786 170.447C70.9693 182.867 65.9747 198.775 66.7608 214.459C68.4733 203.722 72.5891 193.375 78.7195 184.396C80.3437 182.016 82.1616 179.682 84.6019 178.151C87.0423 176.62 90.2306 176.015 92.8359 177.244C93.9115 177.752 94.8303 178.536 95.6993 179.348ZM606.763 285.588C606.189 286.067 605.839 286.756 605.505 287.425C604.46 289.52 603.416 291.614 602.371 293.709C628.835 291.777 655.417 289.828 681.295 283.964C682.229 281.302 682.546 278.426 682.215 275.625C682.175 275.284 682.117 274.926 681.898 274.662C681.483 274.162 680.713 274.221 680.071 274.325C662.978 277.092 645.885 279.859 628.792 282.625C622.699 283.611 616.582 284.6 610.411 284.719C609.135 284.743 607.743 284.771 606.763 285.588ZM82.4303 209.454C83.5088 206.041 85.5867 202.801 88.7221 201.075C91.5647 199.51 92.7243 196.092 93.646 192.981C94.5996 189.762 95.5532 186.543 96.5068 183.325C96.6604 182.806 96.2515 182.305 95.8738 181.918C94.036 180.035 91.9021 178.019 89.2707 178.003C87.0863 177.989 85.1546 179.387 83.5774 180.899C78.8204 185.457 75.7672 191.484 73.1396 197.526C72.1913 199.707 71.2854 201.908 70.5363 204.165C67.671 212.799 67.1723 222.204 69.1086 231.092C71.7775 230.054 74.4876 228.992 76.7536 227.241C79.0196 225.49 80.8205 222.921 80.9701 220.061C81.157 216.486 81.3519 212.867 82.4303 209.454ZM95.0638 163.663C102.657 168.15 108.977 174.766 113.114 182.556C113.924 184.082 114.652 185.652 115.342 187.237C125.822 211.327 127.106 239.286 118.878 264.236C120.621 262.656 122.971 261.891 124.768 260.373C128.443 257.267 128.984 251.893 129.192 247.086C130.093 226.317 129.696 204.839 121.457 185.752C118.441 178.764 114.407 172.216 109.524 166.377C108.726 165.423 107.869 164.46 106.739 163.942C105.538 163.392 104.166 163.405 102.845 163.433C100.251 163.489 97.6569 163.565 95.0638 163.663ZM687.714 282.701C687.462 279.887 686.189 277.284 685.248 274.619C684.307 271.955 683.702 268.96 684.779 266.348C686.113 263.113 685.977 259.407 684.966 256.057C683.955 252.707 682.123 249.664 680.118 246.796C676.25 241.262 671.667 236.229 666.518 231.86C668.592 245.104 675.31 257.083 681.598 268.922C682.742 271.075 683.894 273.29 684.228 275.705C684.508 277.731 684.196 279.788 683.853 281.805C682.533 289.572 680.75 297.261 678.517 304.817C678.043 306.421 678.838 308.101 679.656 309.56C682.616 314.837 686.189 319.77 690.281 324.226C689.089 320.457 687.898 316.687 686.706 312.918C685.178 308.083 683.63 303.049 684.333 298.026C685.061 292.815 688.181 287.942 687.714 282.701ZM92.9595 154.389C88.3691 153.071 82.9892 153.593 79.466 156.818C72.5514 163.146 68.2434 171.976 66.2465 181.134C64.2496 190.292 64.4345 199.803 65.4787 209.118C65.5944 194.634 70.7813 180.24 79.9309 169.011C81.5805 166.987 83.4109 165.019 85.7498 163.857C88.3413 162.571 91.3216 162.385 94.2104 162.222C97.8816 162.016 101.553 161.81 105.224 161.603C101.51 158.6 97.5498 155.708 92.9595 154.389ZM92.2323 202.084C90.1684 201.701 88.0588 202.861 86.7456 204.499C85.4324 206.136 84.7657 208.186 84.1661 210.198C83.1758 213.521 82.2903 216.916 82.2147 220.382C82.139 223.849 82.9366 227.43 85.0306 230.193C86.0877 231.588 87.5412 232.787 89.267 233.078C92.207 233.575 94.9458 231.334 96.5375 228.812C99.8674 223.537 100.031 216.732 98.304 210.738C98.1593 210.236 97.9982 209.728 97.7004 209.299C97.3643 208.814 96.8638 208.443 96.6162 207.908C96.3685 207.372 96.5584 206.558 97.1437 206.484C96.0144 204.514 94.4657 202.498 92.2323 202.084ZM691.159 328.082C688.639 324.828 686.118 321.574 683.597 318.321C681.285 315.336 678.927 312.265 677.818 308.656C675.93 314.709 674.042 320.763 672.155 326.816C672.03 327.214 671.909 327.661 672.097 328.034C672.36 328.559 673.06 328.642 673.647 328.658C678.315 328.781 682.983 328.905 687.652 329.029C688.905 329.062 690.332 329.023 691.159 328.082ZM105.161 195.592C105.331 194.903 105.018 194.195 104.697 193.561C103.088 190.375 101.11 187.376 98.8146 184.642C98.4821 184.246 97.7032 183.943 97.595 184.448C96.3881 190.091 94.4753 195.582 91.9152 200.754C94.3736 201.423 96.5518 203.068 97.8679 205.25C99.5523 202.229 101.671 199.451 104.138 197.028C104.563 196.61 105.018 196.171 105.161 195.592ZM422.107 307.11C422.246 306.691 422.142 306.201 421.846 305.873C421.523 306.836 421.528 307.906 421.861 308.866C422.167 308.349 422.256 307.708 422.101 307.128L422.107 307.11ZM425.681 329.808C425.433 329.918 425.185 330.028 424.937 330.138C425.731 330.512 426.692 330.512 427.486 330.137C426.952 329.862 426.319 329.784 425.734 329.92L425.681 329.808Z" fill="#00160A"/>
<path fill-rule="evenodd" clip-rule="evenodd" d="M418.204 302.935C417.43 302.935 416.729 303.248 416.221 303.756C415.714 304.263 415.4 304.964 415.4 305.739C415.4 306.216 415.518 306.665 415.73 307.057C415.842 307.265 415.981 307.459 416.147 307.635C415.949 307.772 415.77 307.932 415.614 308.112C415.189 308.604 414.932 309.245 414.932 309.945C414.932 310.501 415.094 311.02 415.373 311.456C415.662 311.906 416.076 312.268 416.566 312.493L418.066 313.181L416.704 314.113C415.352 315.04 414.465 316.595 414.465 318.358C414.465 319.032 414.594 319.676 414.83 320.264C414.926 320.506 415.042 320.741 415.177 320.969C414.941 321.092 414.713 321.229 414.493 321.381C412.765 322.573 411.661 324.578 411.661 327.238C411.661 327.586 411.68 327.922 411.716 328.247C411.393 328.199 411.063 328.173 410.726 328.173C408.919 328.173 407.283 328.906 406.099 330.09C404.915 331.274 404.183 332.91 404.183 334.716C404.183 336.523 404.915 338.159 406.099 339.343C407.283 340.527 408.919 341.26 410.726 341.26C412.548 341.26 414.196 340.513 415.38 339.256C416.555 338.007 417.269 336.26 417.269 334.249C417.269 333.904 417.248 333.567 417.208 333.239C417.532 333.289 417.865 333.314 418.204 333.314C420.011 333.314 421.647 332.582 422.831 331.398C424.015 330.214 424.747 328.578 424.747 326.771C424.747 325.312 424.27 323.964 423.463 322.877C423.304 322.663 423.132 322.459 422.948 322.265C423.148 322.094 423.334 321.908 423.505 321.71C424.279 320.81 424.747 319.639 424.747 318.358C424.747 316.869 424.114 315.527 423.102 314.589C422.818 314.326 422.504 314.095 422.168 313.901C422.505 313.748 422.806 313.53 423.055 313.264C423.525 312.763 423.813 312.089 423.813 311.347C423.813 310.63 423.543 309.976 423.101 309.48C422.653 308.979 422.029 308.64 421.325 308.562L419.891 308.402L420.623 307.159C420.868 306.742 421.008 306.257 421.008 305.739C421.008 304.964 420.694 304.263 420.187 303.756C419.68 303.248 418.978 302.935 418.204 302.935Z" fill="white" stroke="#00160A" stroke-width="1.86952"/>
<path fill-rule="evenodd" clip-rule="evenodd" d="M384.548 231.55C384.05 232.144 383.359 232.479 382.644 232.542C381.929 232.604 381.19 232.394 380.597 231.896C380.232 231.59 379.964 231.21 379.8 230.796C379.712 230.577 379.653 230.345 379.625 230.105C379.393 230.169 379.155 230.203 378.917 230.206C378.267 230.216 377.611 230.001 377.074 229.55C376.648 229.193 376.355 228.736 376.201 228.242C376.042 227.731 376.03 227.181 376.173 226.662L376.61 225.07L375.021 225.514C373.442 225.954 371.68 225.634 370.329 224.501C369.813 224.068 369.403 223.555 369.104 222.996C368.981 222.767 368.875 222.526 368.787 222.277C368.541 222.379 368.289 222.465 368.032 222.536C366.008 223.093 363.762 222.651 361.724 220.941C361.458 220.717 361.212 220.487 360.987 220.25C360.817 220.528 360.624 220.798 360.407 221.056C359.246 222.44 357.633 223.222 355.965 223.368C354.297 223.514 352.573 223.024 351.189 221.862C349.805 220.701 349.022 219.089 348.876 217.42C348.73 215.752 349.221 214.028 350.382 212.644C351.554 211.248 353.185 210.465 354.909 210.367C356.621 210.269 358.418 210.845 359.959 212.138C360.223 212.36 360.468 212.592 360.693 212.834C360.864 212.554 361.058 212.282 361.276 212.023C362.437 210.639 364.05 209.856 365.718 209.71C367.386 209.564 369.11 210.055 370.494 211.216C371.612 212.154 372.337 213.386 372.651 214.703C372.713 214.962 372.759 215.225 372.789 215.491C373.048 215.448 373.311 215.425 373.572 215.421C374.76 215.406 375.958 215.801 376.939 216.624C378.08 217.581 378.7 218.929 378.768 220.307C378.787 220.694 378.763 221.082 378.695 221.465C379.029 221.305 379.389 221.214 379.753 221.194C380.439 221.157 381.141 221.37 381.708 221.846C382.258 222.307 382.586 222.934 382.681 223.592C382.777 224.257 382.636 224.953 382.244 225.542L381.444 226.744L382.867 226.982C383.344 227.062 383.805 227.267 384.202 227.6C384.796 228.097 385.131 228.789 385.193 229.503C385.256 230.218 385.046 230.957 384.548 231.55Z" fill="white" stroke="#00160A" stroke-width="1.86952"/>
<path fill-rule="evenodd" clip-rule="evenodd" d="M371.479 239.792C370.846 240.546 369.968 240.972 369.059 241.051C368.15 241.131 367.21 240.864 366.456 240.231C366.189 240.007 365.963 239.752 365.78 239.476C365.677 239.321 365.586 239.157 365.508 238.983C365.323 239.023 365.136 239.049 364.948 239.059C364.074 239.109 363.18 238.838 362.456 238.231C361.871 237.74 361.483 237.102 361.302 236.416C361.115 235.711 361.146 234.955 361.405 234.259L362.08 232.446L360.24 233.044C358.293 233.677 356.138 233.38 354.528 232.029C354.054 231.631 353.661 231.171 353.35 230.667C353.219 230.454 353.101 230.231 352.997 229.999C352.76 230.099 352.518 230.189 352.27 230.268C349.837 231.046 347.198 230.702 345.242 229.061C345.057 228.906 344.882 228.742 344.72 228.571L344.021 227.835L343.345 228.592C341.804 230.317 339.791 231.347 337.76 231.603C335.787 231.851 333.797 231.366 332.242 230.061C330.65 228.725 329.825 226.791 329.76 224.753C329.694 222.661 330.424 220.459 331.953 218.637C333.481 216.815 335.523 215.714 337.595 215.416C339.613 215.126 341.661 215.603 343.254 216.938C343.44 217.095 343.615 217.259 343.779 217.43L344.478 218.161L345.152 217.407C346.692 215.682 348.705 214.652 350.736 214.397C352.709 214.148 354.699 214.634 356.254 215.938C357.488 216.974 358.262 218.37 358.576 219.895C358.629 220.149 358.668 220.405 358.694 220.662C358.948 220.639 359.203 220.632 359.459 220.641C360.72 220.685 361.953 221.119 362.968 221.971C364.451 223.215 365.135 225.072 365.009 226.941C364.984 227.319 364.926 227.691 364.836 228.054C365.187 227.961 365.546 227.923 365.902 227.938C366.66 227.97 367.414 228.243 368.04 228.769C368.635 229.268 369.027 229.921 369.204 230.622C369.386 231.341 369.342 232.109 369.063 232.812C368.891 233.245 368.637 233.634 368.322 233.962C368.792 233.904 369.253 233.941 369.687 234.059C370.169 234.19 370.631 234.426 371.04 234.769C371.794 235.402 372.22 236.28 372.3 237.189C372.379 238.098 372.112 239.037 371.479 239.792Z" fill="white" stroke="#00160A" stroke-width="1.86952"/>
<path fill-rule="evenodd" clip-rule="evenodd" d="M120.202 217.799C119.428 217.799 118.727 218.113 118.219 218.621C117.712 219.128 117.398 219.829 117.398 220.604C117.398 221.08 117.517 221.53 117.728 221.922C117.84 222.129 117.979 222.324 118.145 222.5C117.947 222.636 117.768 222.797 117.612 222.977C117.187 223.469 116.93 224.109 116.93 224.81C116.93 225.366 117.092 225.885 117.371 226.32C117.66 226.77 118.074 227.133 118.564 227.357L120.064 228.045L118.702 228.978C117.35 229.905 116.463 231.46 116.463 233.223C116.463 233.897 116.592 234.54 116.828 235.129C116.925 235.371 117.04 235.606 117.175 235.834C116.939 235.957 116.711 236.094 116.491 236.246C114.763 237.438 113.659 239.443 113.659 242.103C113.659 242.451 113.678 242.787 113.714 243.112C113.391 243.063 113.061 243.038 112.724 243.038C110.917 243.038 109.281 243.77 108.097 244.954C106.913 246.138 106.181 247.774 106.181 249.581C106.181 251.388 106.913 253.024 108.097 254.208C109.281 255.392 110.917 256.125 112.724 256.125C114.546 256.125 116.194 255.378 117.378 254.12C118.553 252.872 119.267 251.125 119.267 249.114C119.267 248.769 119.246 248.432 119.206 248.104C119.531 248.153 119.863 248.179 120.202 248.179C122.009 248.179 123.645 247.447 124.829 246.263C126.013 245.078 126.745 243.443 126.745 241.636C126.745 240.177 126.268 238.829 125.461 237.742C125.302 237.528 125.13 237.324 124.946 237.13C125.146 236.959 125.332 236.773 125.503 236.575C126.277 235.675 126.745 234.503 126.745 233.223C126.745 231.733 126.112 230.392 125.1 229.454C124.816 229.191 124.502 228.96 124.166 228.766C124.503 228.613 124.804 228.395 125.053 228.129C125.523 227.628 125.811 226.954 125.811 226.212C125.811 225.495 125.542 224.841 125.099 224.345C124.651 223.844 124.027 223.505 123.323 223.427L121.889 223.267L122.621 222.023C122.866 221.607 123.006 221.122 123.006 220.604C123.006 219.829 122.692 219.128 122.185 218.621C121.678 218.113 120.976 217.799 120.202 217.799Z" fill="white" stroke="#00160A" stroke-width="1.86952"/>
<path fill-rule="evenodd" clip-rule="evenodd" d="M120.202 243.038C118.389 243.038 116.747 243.777 115.564 244.991C114.384 246.202 113.661 247.884 113.662 249.775C113.663 250.372 113.735 250.948 113.872 251.495C113.398 251.146 112.891 250.859 112.363 250.636C111.469 250.258 110.485 250.049 109.453 250.049C107.388 250.049 105.518 250.886 104.165 252.239C102.812 253.592 101.975 255.462 101.975 257.527C101.975 259.592 102.812 261.461 104.165 262.815C105.518 264.168 107.388 265.005 109.453 265.005C112.013 265.005 114.272 263.719 115.62 261.758C115.791 261.509 115.947 261.25 116.087 260.984C116.326 261.164 116.577 261.325 116.837 261.466C117.698 261.935 118.686 262.201 119.735 262.201C121.413 262.201 122.932 261.521 124.031 260.421C125.131 259.322 125.811 257.803 125.811 256.125C125.811 255.426 125.693 254.756 125.591 253.294C126.32 252.239 126.746 250.96 126.746 249.581C126.746 247.775 126.013 246.139 124.829 244.955C123.645 243.77 122.009 243.038 120.202 243.038Z" fill="white" stroke="#00160A" stroke-width="1.86952"/>
<path fill-rule="evenodd" clip-rule="evenodd" d="M103.377 257.994C101.208 257.994 99.2307 258.815 97.7334 260.162C96.2168 261.527 95.1918 263.432 94.9583 265.574C94.9262 265.868 94.9097 266.161 94.9081 266.452C94.6193 266.422 94.326 266.407 94.0291 266.407C91.7059 266.407 89.6027 267.349 88.0803 268.871C86.5579 270.393 85.6162 272.497 85.6162 274.82C85.6162 277.143 86.5579 279.246 88.0803 280.769C89.6027 282.291 91.7059 283.233 94.0291 283.233C95.7593 283.233 97.3677 282.711 98.7048 281.815C100.083 280.892 101.174 279.572 101.812 278.019C101.956 277.67 102.075 277.313 102.169 276.952C102.474 277.174 102.793 277.374 103.121 277.552C104.31 278.195 105.67 278.559 107.116 278.559C108.995 278.559 110.731 277.943 112.131 276.901C113.566 275.834 114.65 274.32 115.175 272.565C115.261 272.279 115.331 271.991 115.385 271.701C115.667 271.791 115.951 271.862 116.236 271.913C116.613 271.98 117.001 272.016 117.398 272.016C119.205 272.016 120.841 271.283 122.025 270.099C123.209 268.915 123.941 267.279 123.941 265.472C123.941 263.665 123.209 262.03 122.025 260.845C120.841 259.661 119.205 258.929 117.398 258.929C115.14 258.929 113.15 260.073 111.974 261.812C111.655 262.284 111.399 262.796 111.212 263.333C111 262.798 110.735 262.284 110.418 261.801C108.915 259.509 106.323 257.994 103.377 257.994Z" fill="white" stroke="#00160A" stroke-width="1.86952"/>
<path fill-rule="evenodd" clip-rule="evenodd" d="M49.1599 220.604C46.8368 220.604 44.7336 221.545 43.2111 223.068C41.6887 224.59 40.7471 226.693 40.7471 229.016C40.7471 231.022 41.4486 232.863 42.62 234.309C43.8134 235.781 45.494 236.843 47.4169 237.247C47.8492 237.338 48.2838 237.393 48.7168 237.415C48.4706 237.781 48.2554 238.163 48.072 238.556C47.5702 239.634 47.2904 240.836 47.2904 242.103C47.2904 244.521 48.3107 246.701 49.9443 248.235C50.5793 248.832 51.3059 249.329 52.0987 249.706C51.2795 249.514 50.4113 249.541 49.5916 249.806C48.6403 250.113 47.8226 250.718 47.2469 251.509C46.6861 252.28 46.3556 253.229 46.3556 254.255C46.3556 255.546 46.8788 256.714 47.7246 257.56C48.5704 258.406 49.7388 258.929 51.0294 258.929C52.0557 258.929 53.0048 258.598 53.7757 258.037C54.5669 257.462 55.1708 256.644 55.4775 255.693C55.7331 254.9 55.7669 254.062 55.5938 253.266C55.9874 254.028 56.4718 254.726 57.0484 255.34C58.2387 256.607 59.8141 257.504 61.5801 258.033C61.8114 258.103 62.0435 258.165 62.2759 258.22C62.2565 258.453 62.2466 258.69 62.2466 258.929C62.2466 260.79 62.8511 262.511 63.875 263.904C64.9252 265.333 66.4158 266.419 68.1473 266.959C68.3609 267.026 68.5762 267.083 68.7926 267.132C68.7871 267.354 68.7902 267.577 68.8022 267.801C68.9217 270.024 69.904 272.017 71.4197 273.452C72.9273 274.879 74.9628 275.754 77.2028 275.754C77.4342 275.754 77.6634 275.745 77.8897 275.726L78.5585 275.671L78.8249 276.287C79.4809 277.803 80.5706 279.089 81.9373 279.987C83.2619 280.857 84.8471 281.363 86.5504 281.363C88.8735 281.363 90.9767 280.421 92.4992 278.899C94.0216 277.377 94.9632 275.273 94.9632 272.95C94.9632 270.627 94.0216 268.524 92.4992 267.001C90.9767 265.479 88.8735 264.537 86.5504 264.537C86.318 264.537 86.0879 264.547 85.8613 264.565L85.1939 264.619L84.928 264.004C83.9627 261.773 82.059 260.042 79.7148 259.31C79.5013 259.244 79.2861 259.186 79.0698 259.137C79.0751 258.916 79.072 258.693 79.0599 258.468C78.9569 256.555 78.2143 254.813 77.0447 253.428C75.8407 252.002 74.1849 250.955 72.3038 250.488C72.0572 250.427 71.8093 250.377 71.5609 250.336C71.5829 250.088 71.5942 249.836 71.5942 249.581C71.5942 246.8 70.245 244.335 68.1665 242.804C68.0059 242.686 67.8413 242.574 67.6729 242.467C67.7264 242.28 67.7678 242.093 67.7975 241.906C67.8355 241.665 67.8552 241.419 67.8552 241.168C67.8552 239.625 67.1071 238.256 65.9551 237.406C65.7127 237.227 65.4537 237.072 65.182 236.943C65.3729 236.694 65.5493 236.436 65.7106 236.17C66.4787 234.901 66.9204 233.412 66.9204 231.821C66.9204 229.498 65.9788 227.394 64.4563 225.872C62.9339 224.349 60.8307 223.408 58.5075 223.408C57.7654 223.408 57.0457 223.504 56.3604 223.684C56.1731 223.733 55.9867 223.789 55.8015 223.852C55.6818 223.698 55.5568 223.549 55.4268 223.404C53.8864 221.685 51.6495 220.604 49.1599 220.604Z" fill="white" stroke="#00160A" stroke-width="1.86952"/>
<path fill-rule="evenodd" clip-rule="evenodd" d="M46.3562 207.517C44.0331 207.517 41.9299 208.459 40.4074 209.981C38.885 211.504 37.9434 213.607 37.9434 215.93C37.9434 217.486 38.3653 218.943 39.1014 220.193C39.8641 221.488 40.9633 222.561 42.7455 223.946C43.0963 225.934 44.1459 227.681 45.6307 228.925C47.0917 230.149 48.9749 230.886 51.03 230.886C52.9083 230.886 54.6429 230.271 56.0427 229.23C57.4775 228.164 58.5613 226.652 59.0875 224.898C59.1717 224.618 59.2406 224.334 59.2945 224.049C59.575 224.133 59.8566 224.198 60.1379 224.245C60.519 224.309 60.9116 224.343 61.3124 224.343C63.1265 224.343 64.7712 223.658 65.9609 222.542C67.128 221.448 67.8557 219.938 67.8557 218.267C67.8557 216.596 67.128 215.086 65.9609 213.991C64.7712 212.876 63.1265 212.191 61.3124 212.191C59.2422 212.191 57.3916 213.083 56.1896 214.49L54.9745 215.912L54.5667 214.087C54.1425 212.188 53.0761 210.532 51.6082 209.357C50.1689 208.206 48.3429 207.517 46.3562 207.517Z" fill="white" stroke="#00160A" stroke-width="1.86952"/>
<path fill-rule="evenodd" clip-rule="evenodd" d="M52.899 194.431C50.9644 194.431 49.2221 195.21 48.019 196.459C47.882 196.602 47.7513 196.751 47.6274 196.906C47.4399 196.83 47.2507 196.762 47.06 196.701C46.2488 196.441 45.3838 196.3 44.4861 196.3C42.163 196.3 40.0597 197.242 38.5373 198.764C37.0149 200.287 36.0732 202.39 36.0732 204.713C36.0732 207.036 37.0149 209.139 38.5373 210.662C40.0597 212.184 42.163 213.126 44.4861 213.126C46.1823 213.126 47.7613 212.624 49.0824 211.76C50.4456 210.869 51.5345 209.593 52.1943 208.086L53.35 205.447L53.9639 208.262C54.2683 209.659 55.0883 210.877 56.2229 211.744C57.3556 212.61 58.8023 213.126 60.377 213.126C62.1912 213.126 63.8359 212.441 65.0255 211.325C66.1926 210.231 66.9204 208.721 66.9204 207.05C66.9204 205.378 66.1921 203.868 65.0224 202.774C63.8305 201.659 62.182 200.974 60.3608 200.974C60.0403 200.974 59.7252 200.996 59.417 201.037C59.4459 200.731 59.4503 200.419 59.4282 200.105C59.3171 198.521 58.5515 197.107 57.3901 196.089C56.2147 195.058 54.6344 194.431 52.899 194.431Z" fill="white" stroke="#00160A" stroke-width="1.86952"/>
<path d="M36.074 209.387C40.7203 209.387 44.4868 205.62 44.4868 200.974C44.4868 196.328 40.7203 192.561 36.074 192.561C31.4277 192.561 27.6611 196.328 27.6611 200.974C27.6611 205.62 31.4277 209.387 36.074 209.387Z" fill="white" stroke="#00160A" stroke-width="1.86952"/>
<path d="M65.0508 261.733C67.632 261.733 69.7246 259.641 69.7246 257.06C69.7246 254.478 67.632 252.386 65.0508 252.386C62.4695 252.386 60.377 254.478 60.377 257.06C60.377 259.641 62.4695 261.733 65.0508 261.733Z" fill="white" stroke="#00160A" stroke-width="1.86952"/>
<path d="M38.8779 250.516C41.4592 250.516 43.5517 248.424 43.5517 245.842C43.5517 243.261 41.4592 241.168 38.8779 241.168C36.2966 241.168 34.2041 243.261 34.2041 245.842C34.2041 248.424 36.2966 250.516 38.8779 250.516Z" fill="white" stroke="#00160A" stroke-width="1.86952"/>
<path d="M24.8564 225.277C27.4377 225.277 29.5302 223.185 29.5302 220.604C29.5302 218.022 27.4377 215.93 24.8564 215.93C22.2752 215.93 20.1826 218.022 20.1826 220.604C20.1826 223.185 22.2752 225.277 24.8564 225.277Z" fill="white" stroke="#00160A" stroke-width="1.86952"/>
<path d="M32.3349 234.625C34.9162 234.625 37.0087 232.532 37.0087 229.951C37.0087 227.37 34.9162 225.277 32.3349 225.277C29.7537 225.277 27.6611 227.37 27.6611 229.951C27.6611 232.532 29.7537 234.625 32.3349 234.625Z" fill="white" stroke="#00160A" stroke-width="1.86952"/>
<path fill-rule="evenodd" clip-rule="evenodd" d="M88.8875 148.627C85.919 148.627 83.2315 149.83 81.2862 151.775C79.3409 153.721 78.1377 156.408 78.1377 159.377C78.1377 162.169 79.2023 164.713 80.9478 166.624C82.7087 168.552 85.1623 169.837 87.9149 170.083C88.0851 170.098 88.2548 170.109 88.4241 170.116C88.4971 170.269 88.5738 170.421 88.6544 170.57C89.4977 172.134 90.753 173.444 92.2749 174.353C93.7448 175.231 95.4637 175.735 97.3003 175.735C97.5926 175.735 97.882 175.722 98.1671 175.697L99.7236 175.556L99.1112 176.994C98.8478 177.612 98.7024 178.292 98.7024 179.007C98.7024 180.426 99.2779 181.712 100.208 182.642C101.139 183.572 102.424 184.148 103.844 184.148C105.263 184.148 106.549 183.572 107.479 182.642C108.409 181.712 108.985 180.426 108.985 179.007C108.985 177.812 108.577 176.712 107.893 175.839C107.194 174.947 106.208 174.292 105.073 174.015C104.363 173.842 103.637 173.826 102.941 173.953C103.549 173.525 104.106 173.031 104.6 172.482C106.164 170.743 107.115 168.443 107.115 165.92C107.115 163.645 106.342 161.551 105.043 159.887C103.716 158.187 101.842 156.935 99.6843 156.398C99.519 156.356 99.3533 156.32 99.1872 156.288C99.1382 156.125 99.0854 155.963 99.0286 155.801C98.2817 153.683 96.8894 151.869 95.0884 150.595C93.3363 149.355 91.1969 148.627 88.8875 148.627Z" fill="white" stroke="#00160A" stroke-width="1.86952"/>
<path fill-rule="evenodd" clip-rule="evenodd" d="M111.322 170.127C109.902 170.127 108.617 170.702 107.687 171.632C106.756 172.563 106.181 173.848 106.181 175.268C106.181 176.687 106.756 177.973 107.687 178.903C108.617 179.833 109.902 180.409 111.322 180.409C112.742 180.409 114.027 179.833 114.957 178.903C115.888 177.973 116.463 176.687 116.463 175.268C116.463 173.848 115.888 172.563 114.957 171.632C114.027 170.702 112.742 170.127 111.322 170.127ZM98.2353 145.823C95.6489 145.823 93.3056 146.82 91.61 148.439C89.9305 150.042 88.8877 152.256 88.8877 154.703C88.8877 157.15 89.9305 159.364 91.61 160.967C93.3056 162.586 95.6489 163.583 98.2353 163.583C100.822 163.583 103.165 162.586 104.861 160.967C106.54 159.364 107.583 157.15 107.583 154.703C107.583 152.256 106.54 150.042 104.861 148.439C103.165 146.82 100.822 145.823 98.2353 145.823Z" fill="white" stroke="#00160A" stroke-width="1.86952"/>
<path fill-rule="evenodd" clip-rule="evenodd" d="M107.583 158.91C105.964 158.91 104.474 159.458 103.288 160.379C102.075 161.321 101.179 162.651 100.788 164.184C100.746 164.349 100.71 164.515 100.204 164.831C99.2065 165.197 98.3538 165.863 97.7554 166.72C97.1738 167.553 96.833 168.567 96.833 169.659C96.833 171.079 97.4085 172.364 98.3388 173.295C99.2692 174.225 100.554 174.801 101.974 174.801C103.466 174.801 104.81 174.165 106.069 172.768C106.235 172.804 106.402 172.834 106.569 172.858C106.9 172.906 107.238 172.931 107.583 172.931C109.519 172.931 111.271 172.146 112.54 170.878C113.809 169.609 114.593 167.856 114.593 165.92C114.593 163.984 113.809 162.232 112.54 160.963C111.271 159.694 109.519 158.91 107.583 158.91Z" fill="white" stroke="#00160A" stroke-width="1.86952"/>
<path d="M76.2681 174.8C80.3982 174.8 83.7462 171.661 83.7462 167.79C83.7462 163.918 80.3982 160.779 76.2681 160.779C72.1381 160.779 68.79 163.918 68.79 167.79C68.79 171.661 72.1381 174.8 76.2681 174.8Z" fill="white" stroke="#00160A" stroke-width="1.86952"/>
<path fill-rule="evenodd" clip-rule="evenodd" d="M64.1162 145.823C62.302 145.823 60.6573 146.508 59.4677 147.623C58.3006 148.717 57.5728 150.227 57.5728 151.899C57.5728 153.181 58.0011 154.369 58.7277 155.346C58.9906 155.7 59.2911 156.024 59.6258 156.311C59.1993 156.414 58.7795 156.561 58.3737 156.751C57.2842 157.26 56.3663 158.046 55.7286 159.012C55.1206 159.933 54.7686 161.018 54.7686 162.181C54.7686 163.852 55.4963 165.362 56.6634 166.456C57.8531 167.572 59.4978 168.257 61.3119 168.257C63.7065 168.257 65.8097 167.062 66.9529 165.26C67.2153 164.846 67.4272 164.401 67.5856 163.933C67.8245 164.368 68.1105 164.772 68.4375 165.136C69.6426 166.477 71.449 167.322 73.4638 167.322C75.2779 167.322 76.9226 166.637 78.1123 165.522C79.2794 164.428 80.0071 162.918 80.0071 161.246C80.0071 159.575 79.2794 158.065 78.1123 156.971C76.9226 155.856 75.2779 155.17 73.4638 155.17C72.7053 155.17 71.9766 155.29 71.2997 155.512L69.2849 156.174L70.1559 154.24C70.4801 153.52 70.6595 152.729 70.6595 151.899C70.6595 150.227 69.9318 148.717 68.7647 147.623C67.575 146.508 65.9303 145.823 64.1162 145.823Z" fill="white" stroke="#00160A" stroke-width="1.86952"/>
<path fill-rule="evenodd" clip-rule="evenodd" d="M59.4427 130.867C57.6286 130.867 55.9839 131.552 54.7943 132.667C53.6271 133.761 52.8994 135.271 52.8994 136.943C52.8994 138.478 53.5137 139.878 54.5188 140.944C55.5543 142.041 57.0029 142.786 58.6343 142.973L59.5303 143.075L59.4427 144.421C59.4427 146.092 60.1705 147.602 61.3376 148.696C62.5272 149.811 64.172 150.497 65.9861 150.497C66.8864 150.497 67.7446 150.328 68.5252 150.021L70.0374 149.427L69.7909 151.033C69.7475 151.316 69.7251 151.605 69.7251 151.899C69.7251 153.57 70.4529 155.08 71.62 156.174C72.8096 157.29 74.4543 157.975 76.2685 157.975C78.0826 157.975 79.7273 157.29 80.9169 156.174C82.0841 155.08 82.8118 153.57 82.8118 151.899C82.8118 150.228 82.0841 148.718 80.9169 147.623C79.7273 146.508 78.0826 145.823 76.2685 145.823C75.3684 145.823 74.5102 145.991 73.73 146.299L72.2164 146.895L72.4635 145.287C72.5069 145.004 72.5294 144.715 72.5294 144.421C72.5294 142.885 71.9151 141.486 70.91 140.42C69.8745 139.322 68.426 138.578 66.7946 138.391L65.8983 138.289L65.9861 136.943C65.9861 135.271 65.2583 133.761 64.0912 132.667C62.9016 131.552 61.2569 130.867 59.4427 130.867Z" fill="white" stroke="#00160A" stroke-width="1.86952"/>
<path d="M71.5941 185.083C75.2079 185.083 78.1374 182.362 78.1374 179.007C78.1374 175.651 75.2079 172.931 71.5941 172.931C67.9803 172.931 65.0508 175.651 65.0508 179.007C65.0508 182.362 67.9803 185.083 71.5941 185.083Z" fill="white" stroke="#00160A" stroke-width="1.86952"/>
<path fill-rule="evenodd" clip-rule="evenodd" d="M55.7031 179.53L54.0889 177.815C52.8849 176.536 51.1215 175.735 49.1605 175.735C47.3464 175.735 45.7017 176.421 44.512 177.536C43.3449 178.63 42.6172 180.14 42.6172 181.811C42.6172 183.483 43.3449 184.993 44.512 186.087C45.7017 187.202 47.3464 187.887 49.1605 187.887C50.976 187.887 52.6219 187.201 53.8115 186.08C54.9778 184.98 55.7036 183.462 55.7034 181.774L55.7031 179.53ZM55.7047 179.419L57.3188 181.134C58.5228 182.413 60.2862 183.214 62.2472 183.214C64.562 183.214 66.6038 182.097 68.2407 180.039C69.5133 179.605 70.6034 178.813 71.3674 177.79C72.0986 176.811 72.5296 175.62 72.5296 174.333C72.5296 172.662 71.8018 171.152 70.6347 170.058C69.4451 168.943 67.8004 168.257 65.9862 168.257C63.6714 168.257 61.6296 169.374 59.9926 171.432C58.7191 171.866 57.6283 172.659 56.8645 173.687C56.1338 174.672 55.7041 175.872 55.7043 177.174L55.7047 179.419Z" fill="white" stroke="#00160A" stroke-width="1.86952"/>
<path fill-rule="evenodd" clip-rule="evenodd" d="M60.3773 175.735C58.5632 175.735 56.9185 176.421 55.7288 177.536C54.5617 178.63 53.834 180.14 53.834 181.811C53.834 182.901 54.1429 183.922 54.6825 184.803C54.9564 185.25 55.2894 185.661 55.6779 186.022C55.1552 186.02 54.6249 186.079 54.0985 186.202C52.6598 186.539 51.4076 187.319 50.5224 188.383C49.6705 189.407 49.1602 190.694 49.1602 192.094C49.1602 193.765 49.8879 195.275 51.055 196.369C52.2447 197.484 53.8894 198.17 55.7035 198.17C57.2485 198.17 58.6703 197.673 59.7931 196.836C60.9204 195.997 61.7468 194.815 62.0815 193.455C62.2434 192.797 62.2841 192.123 62.214 191.459C62.5955 192.03 63.0561 192.532 63.575 192.95C64.7255 193.875 66.2216 194.431 67.8554 194.431C69.6695 194.431 71.3142 193.745 72.5039 192.63C73.671 191.536 74.3987 190.026 74.3987 188.355C74.3987 186.683 73.6704 185.172 72.5008 184.078C71.3089 182.963 69.6604 182.279 67.8391 182.279C67.5187 182.279 67.2036 182.3 66.8953 182.341C66.9242 182.035 66.9286 181.724 66.9066 181.41C66.7955 179.826 66.0298 178.412 64.8684 177.393C63.693 176.362 62.1128 175.735 60.3773 175.735Z" fill="white" stroke="#00160A" stroke-width="1.86952"/>
<path fill-rule="evenodd" clip-rule="evenodd" d="M312.4 240.935C310.586 240.935 308.941 241.62 307.751 242.735C306.584 243.829 305.856 245.339 305.856 247.011C305.856 248.1 306.165 249.122 306.705 250.003C306.979 250.45 307.312 250.86 307.7 251.221C307.178 251.219 306.647 251.278 306.121 251.401C304.682 251.738 303.43 252.518 302.545 253.582C301.693 254.606 301.183 255.893 301.183 257.293C301.183 258.964 301.91 260.474 303.077 261.568C304.267 262.684 305.912 263.369 307.726 263.369C309.271 263.369 310.693 262.872 311.816 262.036C312.943 261.196 313.769 260.014 314.104 258.654C314.266 257.996 314.307 257.322 314.237 256.658C314.618 257.23 315.079 257.732 315.597 258.149C316.748 259.074 318.244 259.63 319.878 259.63C321.692 259.63 323.337 258.945 324.526 257.829C325.693 256.735 326.421 255.225 326.421 253.554C326.421 251.882 325.693 250.372 324.523 249.278C323.331 248.163 321.683 247.478 319.862 247.478C319.541 247.478 319.226 247.5 318.918 247.541C318.947 247.234 318.951 246.923 318.929 246.609C318.818 245.025 318.052 243.611 316.891 242.592C315.715 241.562 314.135 240.935 312.4 240.935Z" fill="white" stroke="#00160A" stroke-width="1.86952"/>
<path fill-rule="evenodd" clip-rule="evenodd" d="M293.183 270C293.183 272.222 294.137 274.231 295.673 275.686C297.228 277.158 299.377 278.065 301.748 278.065C303.295 278.065 304.746 277.68 305.999 277.003C306.411 276.78 306.808 276.523 307.186 276.231C307.2 276.697 307.256 277.164 307.357 277.627C307.759 279.478 308.835 281.094 310.326 282.244C311.805 283.384 313.693 284.065 315.748 284.065C318.119 284.065 320.268 283.158 321.822 281.686C323.358 280.231 324.313 278.222 324.313 276C324.313 274.202 323.688 272.542 322.634 271.204C321.543 269.818 319.996 268.776 318.204 268.272C317.503 268.075 316.791 267.968 316.084 267.947C316.711 267.609 317.293 267.186 317.815 266.693C319.355 265.237 320.313 263.226 320.313 261C320.313 258.779 319.358 256.77 317.822 255.315C316.268 253.842 314.119 252.935 311.748 252.935C309.376 252.935 307.227 253.842 305.672 255.317C304.137 256.774 303.183 258.785 303.183 261.012L303.183 261.994L301.748 261.935C299.377 261.935 297.228 262.842 295.673 264.315C294.137 265.77 293.183 267.779 293.183 270Z" fill="white" stroke="#00160A" stroke-width="1.86952"/>
<path d="M63.182 204.713C66.7958 204.713 69.7253 201.993 69.7253 198.637C69.7253 195.281 66.7958 192.561 63.182 192.561C59.5682 192.561 56.6387 195.281 56.6387 198.637C56.6387 201.993 59.5682 204.713 63.182 204.713Z" fill="white" stroke="#00160A" stroke-width="1.86952"/>
<path d="M52.8988 176.67C56.5126 176.67 59.4421 173.95 59.4421 170.594C59.4421 167.238 56.5126 164.518 52.8988 164.518C49.285 164.518 46.3555 167.238 46.3555 170.594C46.3555 173.95 49.285 176.67 52.8988 176.67Z" fill="white" stroke="#00160A" stroke-width="1.86952"/>
<path fill-rule="evenodd" clip-rule="evenodd" d="M55.7036 134.605C53.8895 134.605 52.2448 135.291 51.0552 136.406C49.888 137.5 49.1603 139.01 49.1603 140.681C49.1603 142.359 49.8939 143.875 51.0689 144.97C51.4919 145.365 51.9652 145.699 52.4759 145.959C51.9154 146.063 51.3631 146.244 50.8358 146.497C49.5866 147.096 48.5678 148.06 47.9478 149.243C47.8327 149.462 47.7316 149.689 47.6447 149.921C47.4047 149.841 47.1632 149.775 46.9211 149.722C46.4392 149.617 45.9371 149.562 45.4213 149.562C43.6071 149.562 41.9624 150.247 40.7728 151.362C39.6057 152.456 38.8779 153.966 38.8779 155.638C38.8779 157.309 39.6057 158.819 40.7728 159.913C41.9624 161.028 43.6071 161.714 45.4213 161.714C46.6973 161.714 47.8891 161.375 48.898 160.785C49.9286 160.184 50.7687 159.321 51.3076 158.293C51.4227 158.074 51.5238 157.848 51.6107 157.615C51.8507 157.695 52.0922 157.762 52.3343 157.814C52.8161 157.919 53.3182 157.975 53.8341 157.975C55.6482 157.975 57.293 157.289 58.4826 156.174C59.6497 155.08 60.3774 153.57 60.3774 151.899C60.3774 150.221 59.6439 148.705 58.4679 147.611C58.043 147.216 57.5674 146.882 57.0542 146.623C57.6168 146.518 58.1711 146.338 58.7004 146.084C59.7738 145.569 60.6769 144.785 61.3039 143.825C61.9014 142.91 62.247 141.833 62.247 140.681C62.247 139.01 61.5192 137.5 60.3521 136.406C59.1625 135.291 57.5178 134.605 55.7036 134.605Z" fill="white" stroke="#00160A" stroke-width="1.86952"/>
<path fill-rule="evenodd" clip-rule="evenodd" d="M51.0296 126.193C49.4466 126.193 47.9929 126.715 46.8575 127.589C45.721 128.463 44.903 129.692 44.6073 131.098C44.5582 131.332 44.5242 131.567 44.5049 131.802C44.2668 131.801 44.0264 131.812 43.7845 131.836C42.2785 131.985 40.9229 132.609 39.8955 133.549C38.8831 134.474 38.1895 135.708 37.9969 137.09C37.9704 137.281 37.9538 137.471 37.9468 137.66C37.7616 137.712 37.5775 137.771 37.3952 137.838C36.1654 138.293 35.1162 139.085 34.3824 140.095C33.6809 141.062 33.2691 142.229 33.2691 143.486C33.2691 145.246 34.0764 146.827 35.3542 147.931C35.8047 148.321 36.3053 148.643 36.841 148.887C36.262 149.024 35.6922 149.224 35.1426 149.484C33.7289 150.152 32.5393 151.177 31.7127 152.435C30.9221 153.638 30.4648 155.055 30.4648 156.573C30.4648 158.76 31.4158 160.737 32.9438 162.17C34.4943 163.624 36.6375 164.518 39.0023 164.518C41.3671 164.518 43.5104 163.624 45.0609 162.17C46.5889 160.737 47.5398 158.76 47.5398 156.573C47.5398 156.395 47.5336 156.219 47.5203 156.045L47.476 155.463L47.9788 155.168C49.8022 154.096 51.0296 152.201 51.0296 150.029C51.0296 148.932 50.7161 147.903 50.1696 147.017C49.5959 146.086 48.7667 145.313 47.7739 144.776L46.2529 143.954L47.7735 143.132C49.3661 142.27 50.5408 140.797 50.9094 139.048C50.9586 138.814 50.9927 138.579 51.0121 138.344C51.25 138.345 51.4903 138.334 51.732 138.31C53.3882 138.146 54.8627 137.408 55.9183 136.307C56.9443 135.236 57.5729 133.822 57.5729 132.269C57.5729 130.598 56.8452 129.088 55.6781 127.993C54.4884 126.878 52.8437 126.193 51.0296 126.193Z" fill="white" stroke="#00160A" stroke-width="1.86952"/>
<path d="M46.3558 196.3C49.9696 196.3 52.8992 193.58 52.8992 190.224C52.8992 186.868 49.9696 184.148 46.3558 184.148C42.742 184.148 39.8125 186.868 39.8125 190.224C39.8125 193.58 42.742 196.3 46.3558 196.3Z" fill="white" stroke="#00160A" stroke-width="1.86952"/>
<path d="M40.7474 190.691C44.3612 190.691 47.2908 187.971 47.2908 184.615C47.2908 181.26 44.3612 178.54 40.7474 178.54C37.1337 178.54 34.2041 181.26 34.2041 184.615C34.2041 187.971 37.1337 190.691 40.7474 190.691Z" fill="white" stroke="#00160A" stroke-width="1.86952"/>
<path fill-rule="evenodd" clip-rule="evenodd" d="M47.415 157.04C45.5277 157.04 43.7851 157.616 41.5445 158.913C39.5251 158.97 37.6799 159.679 36.2448 160.827C34.8078 161.977 33.7815 163.568 33.0144 165.975C30.8391 167.41 29.4053 169.777 29.4053 172.464C29.4053 174.651 30.3562 176.628 31.8842 178.061C33.4347 179.515 35.578 180.409 37.9428 180.409C40.0247 180.409 41.9344 179.715 43.4378 178.528C44.9518 177.333 46.0526 175.639 46.5036 173.658C46.5612 173.405 46.6072 173.152 46.6418 172.899C46.8964 172.92 47.1543 172.931 47.415 172.931C49.7798 172.931 51.9231 172.036 53.4736 170.583C55.0016 169.15 55.9525 167.173 55.9525 164.986C55.9525 162.798 55.0016 160.821 53.4736 159.388C51.9231 157.935 49.7798 157.04 47.415 157.04Z" fill="white" stroke="#00160A" stroke-width="1.86952"/>
<path d="M61.3119 133.671C64.9257 133.671 67.8552 130.951 67.8552 127.595C67.8552 124.239 64.9257 121.519 61.3119 121.519C57.6981 121.519 54.7686 124.239 54.7686 127.595C54.7686 130.951 57.6981 133.671 61.3119 133.671Z" fill="white" stroke="#00160A" stroke-width="1.86952"/>
<path fill-rule="evenodd" clip-rule="evenodd" d="M405.41 331.935C403.597 331.935 401.955 332.673 400.772 333.888C399.592 335.099 398.869 336.78 398.87 338.671C398.871 339.268 398.943 339.844 399.08 340.391C398.606 340.042 398.099 339.756 397.571 339.533C396.677 339.154 395.693 338.945 394.661 338.945C392.596 338.945 390.726 339.782 389.373 341.136C388.02 342.489 387.183 344.358 387.183 346.423C387.183 348.488 388.02 350.358 389.373 351.711C390.726 353.064 392.596 353.901 394.661 353.901C397.221 353.901 399.48 352.615 400.828 350.655C400.999 350.406 401.155 350.147 401.295 349.88C401.534 350.06 401.785 350.221 402.045 350.363C402.906 350.831 403.894 351.097 404.943 351.097C406.621 351.097 408.14 350.417 409.239 349.318C410.339 348.218 411.019 346.699 411.019 345.021C411.019 344.323 410.902 343.652 410.799 342.191C411.528 341.136 411.954 339.857 411.954 338.478C411.954 336.671 411.221 335.035 410.037 333.851C408.853 332.667 407.217 331.935 405.41 331.935Z" fill="white" stroke="#00160A" stroke-width="1.86952"/>
<path fill-rule="evenodd" clip-rule="evenodd" d="M370.322 357.241C372.026 357.862 373.821 357.729 375.349 356.992C376.871 356.258 378.126 354.925 378.771 353.148C378.975 352.587 379.104 352.021 379.163 351.46C379.489 351.95 379.867 352.392 380.287 352.783C380.998 353.444 381.851 353.977 382.821 354.33C384.761 355.036 386.804 354.889 388.539 354.08C390.273 353.272 391.699 351.801 392.406 349.861C393.112 347.92 392.965 345.877 392.156 344.143C391.347 342.408 389.877 340.982 387.936 340.276C385.531 339.4 382.968 339.836 381.03 341.218C380.784 341.393 380.549 341.583 380.327 341.786C380.164 341.535 379.983 341.297 379.787 341.075C379.138 340.341 378.301 339.753 377.315 339.394C375.738 338.82 374.078 338.94 372.669 339.597C371.26 340.254 370.101 341.449 369.527 343.026C369.288 343.682 369.169 344.352 368.766 345.761C367.72 346.503 366.882 347.559 366.411 348.855C365.793 350.553 365.922 352.34 366.629 353.858C367.337 355.376 368.624 356.623 370.322 357.241Z" fill="white" stroke="#00160A" stroke-width="1.86952"/>
<path d="M380.748 364.065C384.926 364.065 388.313 360.678 388.313 356.5C388.313 352.322 384.926 348.935 380.748 348.935C376.57 348.935 373.183 352.322 373.183 356.5C373.183 360.678 376.57 364.065 380.748 364.065Z" fill="white" stroke="#00160A" stroke-width="1.86952"/>
<path d="M390.748 362.065C394.926 362.065 398.313 358.678 398.313 354.5C398.313 350.322 394.926 346.935 390.748 346.935C386.57 346.935 383.183 350.322 383.183 354.5C383.183 358.678 386.57 362.065 390.748 362.065Z" fill="white" stroke="#00160A" stroke-width="1.86952"/>
<path fill-rule="evenodd" clip-rule="evenodd" d="M329.748 217.935C328.246 217.935 326.847 218.372 325.643 219.125C324.364 219.924 323.304 221.078 322.571 222.442C322.481 222.611 322.395 222.782 322.316 222.955C322.128 222.942 321.939 222.935 321.748 222.935C319.659 222.935 317.767 223.781 316.398 225.15C315.029 226.519 314.183 228.411 314.183 230.5C314.183 231.621 314.426 232.685 314.865 233.641C315.081 234.113 315.348 234.566 315.666 234.992C315.153 234.928 314.627 234.917 314.095 234.962C312.15 235.128 310.416 236.03 309.171 237.388C307.936 238.734 307.183 240.529 307.183 242.5C307.183 244.589 308.029 246.48 309.398 247.849C310.767 249.218 312.659 250.065 314.748 250.065C315.449 250.065 316.127 249.97 316.77 249.793C316.977 249.736 317.182 249.67 317.385 249.594C317.502 249.775 317.626 249.951 317.758 250.122C319.142 251.912 321.31 253.065 323.748 253.065C325.837 253.065 327.728 252.218 329.097 250.849C330.466 249.48 331.313 247.589 331.313 245.5C331.313 244.379 331.07 243.315 330.631 242.358C330.415 241.886 330.147 241.433 329.83 241.007C330.343 241.071 330.869 241.083 331.401 241.037C333.346 240.871 335.08 239.969 336.325 238.612C337.56 237.265 338.313 235.471 338.313 233.5C338.313 231.866 337.795 230.352 336.914 229.116C336.815 228.977 336.71 228.841 336.602 228.708C336.675 228.552 336.742 228.395 336.804 228.235C337.133 227.387 337.313 226.464 337.313 225.5C337.313 223.411 336.466 221.519 335.097 220.15C333.728 218.781 331.837 217.935 329.748 217.935Z" fill="white" stroke="#00160A" stroke-width="1.86952"/>
<path d="M338.748 238.065C342.926 238.065 346.313 234.678 346.313 230.5C346.313 226.322 342.926 222.935 338.748 222.935C334.57 222.935 331.183 226.322 331.183 230.5C331.183 234.678 334.57 238.065 338.748 238.065Z" fill="white" stroke="#00160A" stroke-width="1.86952"/>
<path d="M315.248 274.065C318.598 274.065 321.313 271.35 321.313 268C321.313 264.65 318.598 261.935 315.248 261.935C311.898 261.935 309.183 264.65 309.183 268C309.183 271.35 311.898 274.065 315.248 274.065Z" fill="white" stroke="#00160A" stroke-width="1.86952"/>
<path d="M328.248 222.565C331.045 222.565 333.313 220.297 333.313 217.5C333.313 214.702 331.045 212.435 328.248 212.435C325.45 212.435 323.183 214.702 323.183 217.5C323.183 220.297 325.45 222.565 328.248 222.565Z" fill="white" stroke="#00160A" stroke-width="1.86952"/>
<path d="M314.248 213.065C317.045 213.065 319.313 210.797 319.313 208C319.313 205.202 317.045 202.935 314.248 202.935C311.45 202.935 309.183 205.202 309.183 208C309.183 210.797 311.45 213.065 314.248 213.065Z" fill="white" stroke="#00160A" stroke-width="1.86952"/>
<path fill-rule="evenodd" clip-rule="evenodd" d="M310.025 297.935C306.864 297.935 304.109 298.92 302.225 300.548C300.436 302.094 299.448 304.226 299.726 306.591C299.972 308.684 301.142 310.594 302.86 312.099C304.677 313.69 307.109 314.832 309.784 315.268C310.251 315.345 310.719 315.398 311.184 315.429C310.908 315.792 310.673 316.181 310.477 316.592C309.96 317.681 309.741 318.895 309.887 320.175C310.175 322.713 311.81 324.978 314.138 326.582L315.812 327.735L313.846 328.255C312.613 328.581 311.583 329.212 310.908 330.055C310.295 330.821 309.985 331.764 310.102 332.785C310.257 334.149 311.114 335.364 312.327 336.253C313.615 337.197 315.314 337.776 317.115 337.776C318.523 337.776 319.788 337.422 320.78 336.806C321.728 336.218 322.424 335.391 322.713 334.416C322.875 333.868 322.904 333.29 322.815 332.71C323.25 333.159 323.707 333.572 324.184 333.944C325.927 335.302 328.142 336.264 330.571 336.831C330.797 336.884 331.023 336.933 331.249 336.978C331.252 337.2 331.265 337.422 331.288 337.644C331.49 339.582 332.475 341.363 333.952 342.811C335.52 344.349 337.644 345.511 340.023 346.092C340.231 346.143 340.439 346.189 340.647 346.23C340.664 346.436 340.689 346.642 340.724 346.846C341.114 349.178 342.623 351.252 344.741 352.754C346.915 354.296 349.738 355.237 352.738 355.237C353.048 355.237 353.354 355.227 353.655 355.207C353.844 355.194 354.033 355.177 354.224 355.156C354.314 355.321 354.409 355.483 354.509 355.641C356.53 358.849 360.704 361.057 365.289 361.057C368.351 361.057 371.049 360.07 372.924 358.445C374.717 356.89 375.745 354.747 375.546 352.37C375.344 349.943 373.908 347.765 371.797 346.18C369.608 344.537 366.688 343.526 363.559 343.526C363.245 343.526 362.936 343.536 362.632 343.556C362.445 343.568 362.255 343.584 362.065 343.605C361.975 343.44 361.88 343.279 361.781 343.122C360.275 340.733 357.548 338.901 354.342 338.119C354.133 338.068 353.923 338.022 353.714 337.981C353.698 337.773 353.674 337.566 353.641 337.359C353.32 335.363 352.163 333.555 350.497 332.113C348.728 330.581 346.385 329.46 343.797 328.959C343.557 328.912 343.318 328.871 343.078 328.836C343.078 328.602 343.067 328.367 343.044 328.132C342.758 325.206 340.676 322.647 337.775 321.046C337.58 320.938 337.383 320.836 337.184 320.739C337.239 320.537 337.276 320.335 337.296 320.135C337.32 319.897 337.32 319.652 337.295 319.404C337.131 317.761 335.94 316.341 334.314 315.444C333.985 315.263 333.646 315.107 333.304 314.982C333.553 314.711 333.781 314.419 333.987 314.108C334.841 312.823 335.259 311.316 335.097 309.704C334.852 307.273 333.35 305.094 331.17 303.507C328.906 301.858 325.903 300.845 322.701 300.845C321.68 300.845 320.7 300.948 319.001 300.958C316.676 299.097 313.459 297.935 310.025 297.935Z" fill="white" stroke="#00160A" stroke-width="1.86952"/>
<path d="M349.748 347.065C353.926 347.065 357.313 343.678 357.313 339.5C357.313 335.322 353.926 331.935 349.748 331.935C345.57 331.935 342.183 335.322 342.183 339.5C342.183 343.678 345.57 347.065 349.748 347.065Z" fill="white" stroke="#00160A" stroke-width="1.86952"/>
<path fill-rule="evenodd" clip-rule="evenodd" d="M304.248 276.935C301.877 276.935 299.719 277.845 298.104 279.334C296.475 280.836 295.398 282.926 295.212 285.268C295.192 285.512 295.183 285.755 295.183 285.996C294.943 286.024 294.703 286.062 294.463 286.11C292.368 286.528 290.534 287.669 289.231 289.26C287.951 290.823 287.183 292.822 287.183 295C287.183 297.503 288.197 299.769 289.838 301.41C291.478 303.05 293.745 304.065 296.248 304.065C298.057 304.065 299.743 303.535 301.158 302.622C302.619 301.678 303.791 300.327 304.513 298.728C304.755 298.192 304.942 297.636 305.075 297.069C305.35 297.581 305.683 298.06 306.066 298.495C307.453 300.071 309.484 301.065 311.748 301.065C313.837 301.065 315.728 300.218 317.097 298.849C318.466 297.48 319.313 295.589 319.313 293.5C319.313 290.78 317.877 288.395 315.722 287.063C315.554 286.959 315.382 286.862 315.207 286.772C315.24 286.575 315.265 286.379 315.283 286.184C315.303 285.959 315.313 285.731 315.313 285.5C315.313 283.568 314.589 281.806 313.398 280.469C312.194 279.117 310.512 278.2 308.305 277.891C307.084 277.279 305.706 276.935 304.248 276.935Z" fill="white" stroke="#00160A" stroke-width="1.86952"/>
<path d="M303.248 305.065C307.702 305.065 311.313 301.454 311.313 297C311.313 292.546 307.702 288.935 303.248 288.935C298.794 288.935 295.183 292.546 295.183 297C295.183 301.454 298.794 305.065 303.248 305.065Z" fill="white" stroke="#00160A" stroke-width="1.86952"/>
<path d="M297.248 292.065C301.702 292.065 305.313 288.454 305.313 284C305.313 279.546 301.702 275.935 297.248 275.935C292.794 275.935 289.183 279.546 289.183 284C289.183 288.454 292.794 292.065 297.248 292.065Z" fill="white" stroke="#00160A" stroke-width="1.86952"/>
<path d="M291.248 284.065C295.702 284.065 299.313 280.454 299.313 276C299.313 271.546 295.702 267.935 291.248 267.935C286.794 267.935 283.183 271.546 283.183 276C283.183 280.454 286.794 284.065 291.248 284.065Z" fill="white" stroke="#00160A" stroke-width="1.86952"/>
<path d="M291.248 270.065C295.702 270.065 299.313 266.454 299.313 262C299.313 257.546 295.702 253.935 291.248 253.935C286.794 253.935 283.183 257.546 283.183 262C283.183 266.454 286.794 270.065 291.248 270.065Z" fill="white" stroke="#00160A" stroke-width="1.86952"/>
</svg>
